<svg xmlns="http://www.w3.org/2000/svg" >
 <symbol id="icon-menu" viewBox="0 0 24 24" width="48px">
<title>menu</title>
<path d="M21 11h-18c-0.6 0-1 0.4-1 1s0.4 1 1 1h18c0.6 0 1-0.4 1-1s-0.4-1-1-1z"></path>
<path d="M3 7h18c0.6 0 1-0.4 1-1s-0.4-1-1-1h-18c-0.6 0-1 0.4-1 1s0.4 1 1 1z"></path>
<path d="M21 17h-18c-0.6 0-1 0.4-1 1s0.4 1 1 1h18c0.6 0 1-0.4 1-1s-0.4-1-1-1z"></path>
</symbol>
<symbol
              viewBox="0 0 24 24"
              fill="none"
              id="icon-name"
            >
<circle
               cx="12"
                cy="6"
                r="4"
                stroke="#1C274C"
                stroke-width="1.5"
/>
<path
                d="M19.9975 18C20 17.8358 20 17.669 20 17.5C20 15.0147 16.4183 13 12 13C7.58172 13 4 15.0147 4 17.5C4 19.9853 4 22 12 22C14.231 22 15.8398 21.8433 17 21.5634"
                stroke="#1C274C"
                stroke-width="1.5"
                stroke-linecap="round"/>
</symbol>
 <symbol viewBox="0 0 1024 1024"
              fill="#000000"
              id="icon-address"
              version="1.1"
            >
<path
d="M512 1012.8c-253.6 0-511.2-54.4-511.2-158.4 0-92.8 198.4-131.2 283.2-143.2h3.2c12 0 22.4 8.8 24 20.8 0.8 6.4-0.8 12.8-4.8 17.6-4 4.8-9.6 8.8-16 9.6-176.8 25.6-242.4 72-242.4 96 0 44.8 180.8 110.4 463.2 110.4s463.2-65.6 463.2-110.4c0-24-66.4-70.4-244.8-96-6.4-0.8-12-4-16-9.6-4-4.8-5.6-11.2-4.8-17.6 1.6-12 12-20.8 24-20.8h3.2c85.6 12 285.6 50.4 285.6 143.2 0.8 103.2-256 158.4-509.6 158.4z m-16.8-169.6c-12-11.2-288.8-272.8-288.8-529.6 0-168 136.8-304.8 304.8-304.8S816 145.6 816 313.6c0 249.6-276.8 517.6-288.8 528.8l-16 16-16-15.2zM512 56.8c-141.6 0-256.8 115.2-256.8 256.8 0 200.8 196 416 256.8 477.6 61.6-63.2 257.6-282.4 257.6-477.6C768.8 172.8 653.6 56.8 512 56.8z m0 392.8c-80 0-144.8-64.8-144.8-144.8S432 160 512 160c80 0 144.8 64.8 144.8 144.8 0 80-64.8 144.8-144.8 144.8zM512 208c-53.6 0-96.8 43.2-96.8 96.8S458.4 401.6 512 401.6c53.6 0 96.8-43.2 96.8-96.8S564.8 208 512 208z"
fill=""
/>
</symbol>
<symbol id="icon-date" viewBox="-0.5 0 15 15">
<path
fill="#000000" fill-rule="evenodd" d="M107,154.006845 C107,153.45078 107.449949,153 108.006845,153 L119.993155,153 C120.54922,153 121,153.449949 121,154.006845 L121,165.993155 C121,166.54922 120.550051,167 119.993155,167 L108.006845,167 C107.45078,167 107,166.550051 107,165.993155 L107,154.006845 Z M108,157 L120,157 L120,166 L108,166 L108,157 Z M116.5,163.5 L116.5,159.5 L115.757485,159.5 L114.5,160.765367 L114.98503,161.275112 L115.649701,160.597451 L115.649701,163.5 L116.5,163.5 Z M112.5,163.5 C113.412548,163.5 114,163.029753 114,162.362119 C114,161.781567 113.498099,161.473875 113.110266,161.433237 C113.532319,161.357765 113.942966,161.038462 113.942966,160.550798 C113.942966,159.906386 113.395437,159.5 112.505703,159.5 C111.838403,159.5 111.359316,159.761248 111.051331,160.115385 L111.456274,160.632075 C111.724335,160.370827 112.055133,160.231495 112.425856,160.231495 C112.819392,160.231495 113.13308,160.382438 113.13308,160.690131 C113.13308,160.974601 112.847909,161.102322 112.425856,161.102322 C112.28327,161.102322 112.020913,161.102322 111.952471,161.096517 L111.952471,161.839623 C112.009506,161.833817 112.26616,161.828012 112.425856,161.828012 C112.956274,161.828012 113.190114,161.967344 113.190114,162.275036 C113.190114,162.565312 112.93346,162.768505 112.471483,162.768505 C112.10076,162.768505 111.684411,162.605951 111.427757,162.327286 L111,162.87881 C111.279468,163.227141 111.804183,163.5 112.5,163.5 Z M110,152.5 C110,152.223858 110.214035,152 110.504684,152 L111.495316,152 C111.774045,152 112,152.231934 112,152.5 L112,153 L110,153 L110,152.5 Z M116,152.5 C116,152.223858 116.214035,152 116.504684,152 L117.495316,152 C117.774045,152 118,152.231934 118,152.5 L118,153 L116,153 L116,152.5 Z"
                transform="translate(-107 -152)"
              />
</symbol>
<symbol
              id="icon-close"
              viewBox="0 0 40 40"
            >
              <path
                fill="#dff0fe"
                d="M21 24.15L8.857 36.293 4.707 32.143 16.85 20 4.707 7.857 8.857 3.707 21 15.85 33.143 3.707 37.293 7.857 25.15 20 37.293 32.143 33.143 36.293z"
              />
              <path
                fill="#4788c7"
                d="M33.143,4.414l3.443,3.443L25.15,19.293L24.443,20l0.707,0.707l11.436,11.436l-3.443,3.443 L21.707,24.15L21,23.443l-0.707,0.707L8.857,35.586l-3.443-3.443L16.85,20.707L17.557,20l-0.707-0.707L5.414,7.857l3.443-3.443 L20.293,15.85L21,16.557l0.707-0.707L33.143,4.414 M33.143,3L21,15.143L8.857,3L4,7.857L16.143,20L4,32.143L8.857,37L21,24.857 L33.143,37L38,32.143L25.857,20L38,7.857L33.143,3L33.143,3z"
              />
            </symbol>

 

 <symbol
              id="icon-career"
              viewBox="0 -5.88 359.214 359.214"
              xmlns="http://www.w3.org/2000/svg"
            >
              <defs>
                <style>
                  .a {
                    fill: #ffffff;
                  }
                  .b {
                    fill: #211715;
                  }
                  .c {
                    fill: #7a7473;
                  }
                  .d {
                    fill: #64a4d6;
                  }
                  .e {
                    fill: #ffda71;
                  }
                  .f {
                    fill: #3d8dcc;
                  }
                </style>
              </defs>
              <path
                class="a"
                d="M66.629,169.08A21.338,21.338,0,0,1,51.8,166.906c.044,18.957.2,40.149-.388,59.788h22.95c-.5-19.83-.55-41.817-.553-60.631A19.485,19.485,0,0,1,66.629,169.08Z"
              />
              <path
                class="a"
                d="M82.322,129.519a4.744,4.744,0,0,1,5.377,2.206,6.477,6.477,0,0,1-.422,6.268,10.286,10.286,0,0,1-5.016,4.022s-.1.036-.2.079a22.251,22.251,0,0,1-4.342,7.65,17.851,17.851,0,0,1-7.286,5.195v0c.061.681.1,1.434.295,2.564.234,1.292.163,2.452,1.964,3.1.055.02.575.222,1.112.426q0,2.472,0,5.029a21.429,21.429,0,0,1-22.006.841q-.006-2.922-.009-5.77c.089-.024.152-.045.179-.055,1.8-.65,1.716-1.81,1.956-3.1.1-.536.376-2.825.376-3.275l.016-.186a18.415,18.415,0,0,1-6.258-4.627,22.3,22.3,0,0,1-4.431-7.617,10.23,10.23,0,0,1-5.42-4.37,6.478,6.478,0,0,1-.225-6.278,4.746,4.746,0,0,1,5.443-2.037S39.314,115.642,62.8,115.642,82.322,129.519,82.322,129.519Z"
              />
              <path
                class="b"
                d="M50.754,168.611a23.312,23.312,0,0,0,24.079-.83c2.111-1.445.113-4.913-2.019-3.454a19.311,19.311,0,0,1-20.041.83c-2.234-1.288-4.251,2.167-2.019,3.454Z"
              />
              <path
                class="a"
                d="M308.78,32.615a4.744,4.744,0,0,1,5.377,2.207,6.475,6.475,0,0,1-.422,6.267,10.28,10.28,0,0,1-5.016,4.022s-.1.036-.2.08a22.247,22.247,0,0,1-4.342,7.649,17.851,17.851,0,0,1-7.286,5.195v0c.061.681.1,1.434.3,2.564.234,1.292.163,2.452,1.964,3.1.055.02.575.222,1.112.426q0,2.472,0,5.029A21.43,21.43,0,0,1,278.26,70q-.006-2.924-.009-5.77c.089-.024.152-.046.179-.056,1.8-.65,1.716-1.809,1.956-3.1.1-.535.376-2.825.376-3.275l.016-.186a18.425,18.425,0,0,1-6.258-4.626,22.3,22.3,0,0,1-4.431-7.618,10.225,10.225,0,0,1-5.42-4.37,6.476,6.476,0,0,1-.225-6.277,4.745,4.745,0,0,1,5.443-2.038s-4.115-13.947,19.371-13.947S308.78,32.615,308.78,32.615Z"
              />
              <path
                class="a"
                d="M331.6,165.909c.821-.228,1.606-1,2.3-2.528.341-5.614-2.543-14.818-4.646-21.471h-13.65q.061,3.122.122,6.385l1.093,3.855c-.662,3.994.825,9.881,5.932,6.04l1.191-.851C325.437,160.854,328.735,166.709,331.6,165.909Z"
              />
              <path
                class="b"
                d="M327.183,141.96c1.168,3.7,2.336,7.4,3.279,11.16a35.192,35.192,0,0,1,1.446,10.261l.273-1.009a7.8,7.8,0,0,1-.652,1.176c.091-.128-.477.643-.231.294-.108.152-.355.056-.157.122.251.084-.142.051-.163.041.682.327,0-.256-.012-.024.008-.115.451.249.05,0-.19-.12-.239-.071-.006.03a3.738,3.738,0,0,1-.415-.219c-.118-.071-.232-.15-.344-.23-.172-.124.2.177-.076-.073s-.507-.479-.743-.739c-.113-.125-.222-.252-.331-.381.006.008-.367-.467-.206-.254a24.983,24.983,0,0,1-2.371-3.944q-.25-.5-.485-1.016c-.067-.146-.132-.293-.2-.439-.249-.559.138.35-.081-.186-.2-.484-.384-.973-.54-1.472-.764-2.45-4.627-1.4-3.857,1.063a28.974,28.974,0,0,0,2.805,6.088c1.2,2.016,2.749,4.316,4.961,5.315,2.724,1.231,5.169-.4,6.39-2.887.738-1.506.415-3.541.219-5.162a55.318,55.318,0,0,0-1.011-5.714c-1-4.35-2.345-8.609-3.687-12.861-.773-2.446-4.636-1.4-3.858,1.063Z"
              />
              <path
                class="b"
                d="M314.9,151.617a13.855,13.855,0,0,0-.2,3.076,10.943,10.943,0,0,0,.518,2.911,6.247,6.247,0,0,0,1.589,2.637,4.427,4.427,0,0,0,3.073,1.195,6.957,6.957,0,0,0,3.888-1.52,2.181,2.181,0,0,0,.92-1.195,2.047,2.047,0,0,0-.2-1.541,2.017,2.017,0,0,0-1.195-.919,1.943,1.943,0,0,0-1.541.2,7.826,7.826,0,0,1-1.6.948l.477-.2a4.1,4.1,0,0,1-1,.276l.531-.071a2.843,2.843,0,0,1-.708,0l.532.071a2.449,2.449,0,0,1-.577-.161l.478.2a2.564,2.564,0,0,1-.5-.3l.405.312a3.084,3.084,0,0,1-.532-.539l.313.405a4.576,4.576,0,0,1-.547-.956l.2.478a7.872,7.872,0,0,1-.518-1.978l.071.531a11.514,11.514,0,0,1,0-3.019l-.071.532c.014-.1.03-.208.047-.312a2.172,2.172,0,0,0-.2-1.541,2,2,0,0,0-2.736-.718,1.942,1.942,0,0,0-.919,1.195Z"
              />
              <path
                class="a"
                d="M105.146,262.813c.821-.229,1.606-1,2.3-2.528.341-5.614-2.543-14.818-4.646-21.472H89.154q.061,3.122.122,6.385l1.093,3.855c-.662,3.994.825,9.881,5.932,6.04l1.191-.851C98.979,257.758,102.277,263.613,105.146,262.813Z"
              />
              <path
                class="a"
                d="M20.224,262.813c-.821-.229-1.606-1-2.3-2.528-.341-5.614,2.543-14.818,4.646-21.472h13.65q-.062,3.122-.121,6.385L35,249.053c.662,3.994-.824,9.881-5.932,6.04l-1.191-.851C26.391,257.758,23.093,263.613,20.224,262.813Z"
              />
              <path
                class="a"
                d="M78.679,342.717c-.416-.274-.813-.569-1.2-.873a27.736,27.736,0,0,0-7.028-3.935c-1.593-.6-3.916-.992-5.179-1.962-1.758-1.351-1.658-3.921-1.658-5.75,0-1.286-.042-5.021-.042-6.494,7.136-.086,14.208-.181,18.563-.258l1.326,1.272a84.314,84.314,0,0,1,11.816,9.929,6.354,6.354,0,0,1,1.737,6.284,4.264,4.264,0,0,1-2.019,3.046,11.361,11.361,0,0,1-4.458,1.293A19.886,19.886,0,0,1,80.045,343.5,11.11,11.11,0,0,1,78.679,342.717Z"
              />
              <path
                class="a"
                d="M29.852,343.32a4.945,4.945,0,0,1-1.16-2.39,6.351,6.351,0,0,1,1.736-6.284,84.372,84.372,0,0,1,11.816-9.929l.886-.8c4.154-.032,11.449-.108,18.883-.2,0,1.694-.006,5.245-.006,6.475,0,1.829.185,4.4-1.574,5.75-1.263.97-3.586,1.359-5.179,1.962a27.736,27.736,0,0,0-7.028,3.935,13.8,13.8,0,0,1-2.569,1.652,19.884,19.884,0,0,1-10.489,1.773,11.361,11.361,0,0,1-4.458-1.293A3.914,3.914,0,0,1,29.852,343.32Z"
              />
              <path class="a" d="M350.016,248.474H228.4v96.9H350.016Z" />
              <path
                class="a"
                d="M305.137,245.814c-.416-.275-.813-.57-1.2-.874a27.736,27.736,0,0,0-7.028-3.935c-1.593-.6-3.916-.991-5.179-1.962-1.758-1.35-1.658-3.921-1.658-5.749,0-1.286-.042-5.022-.042-6.494,7.137-.086,14.208-.182,18.563-.259l1.326,1.272a84.314,84.314,0,0,1,11.816,9.929,6.354,6.354,0,0,1,1.737,6.284,4.268,4.268,0,0,1-2.019,3.047,11.378,11.378,0,0,1-4.458,1.293,19.9,19.9,0,0,1-10.489-1.774A11.1,11.1,0,0,1,305.137,245.814Z"
              />
              <path
                class="a"
                d="M256.31,246.417a4.953,4.953,0,0,1-1.16-2.391,6.351,6.351,0,0,1,1.736-6.284,84.372,84.372,0,0,1,11.816-9.929l.886-.8c4.154-.032,11.449-.108,18.883-.2,0,1.695-.006,5.245-.006,6.476,0,1.828.185,4.4-1.574,5.749-1.263.971-3.586,1.359-5.179,1.962a27.736,27.736,0,0,0-7.028,3.935,13.8,13.8,0,0,1-2.569,1.652,19.9,19.9,0,0,1-10.489,1.774,11.378,11.378,0,0,1-4.458-1.293A3.976,3.976,0,0,1,256.31,246.417Z"
              />
              <path
                class="c"
                d="M298.014,21.642a12.6,12.6,0,0,1,3.621,2.565,23.753,23.753,0,0,1,5.689,8.358h1.54a4.729,4.729,0,0,1,3.336.367c2.584-8.469.758-17.461-4.681-22.134l-5.034-4.345c-3.274-3.433-8.955-4.715-14.986-4.27-7.794.577-12.919,3.154-17.206,7.972-4.906,5.512-6.873,15.068-4.707,23.262a4.791,4.791,0,0,1,4.3-.761c2.524-3.474,7.019-8.079,9.947-9.723.344-.193.785.068.924.682a4.314,4.314,0,0,1,.09,1.47c-.066.648.521,1.119,1.019.822,2.091-1.242,5.815-3.744,8.456-4.935Z"
              />
              <path
                class="b"
                d="M303.9,5.039c-5.96-6.05-16.575-5.9-24.13-3.461A24.3,24.3,0,0,0,264.037,17.6a30.742,30.742,0,0,0-.745,14.762c.477,2.527,4.333,1.457,3.857-1.063-1.273-6.746.053-14.782,4.792-19.986C276.7,6.088,283.306,3.985,290.266,4.1c3.852.066,8.01.927,10.805,3.764,1.81,1.837,4.638-.992,2.829-2.828Z"
              />
              <path
                class="b"
                d="M314.314,32.827c2.153-7.945,1.128-17.729-5.38-23.443-1.928-1.692-4.768,1.126-2.829,2.828,5.46,4.794,6.153,12.907,4.352,19.551-.674,2.488,3.183,3.55,3.857,1.064Z"
              />
              <path
                class="b"
                d="M294.122,37.292a3.915,3.915,0,0,1,.967-3.147,2.992,2.992,0,0,1,2.048-.873,3.21,3.21,0,0,1,2.683,1.258,3.937,3.937,0,0,1-.084,4.592,3.056,3.056,0,0,1-4.121.672A3.353,3.353,0,0,1,294.122,37.292Z"
              />
              <path
                class="b"
                d="M278.509,37.292a3.913,3.913,0,0,1,.968-3.147,2.989,2.989,0,0,1,2.047-.873,3.213,3.213,0,0,1,2.684,1.258,3.938,3.938,0,0,1-.085,4.592,3.056,3.056,0,0,1-4.121.672A3.353,3.353,0,0,1,278.509,37.292Z"
              />
              <path
                class="b"
                d="M297,23.369c.449.222.893.454,1.319.718.217.135.426.28.636.426.167.116.119.087-.015-.019q.205.162.4.331a22.927,22.927,0,0,1,2.595,2.638c.187.219.368.442.549.665.384.476-.11-.156.1.126.1.129.193.256.287.386.374.512.731,1.038,1.065,1.578.324.522.626,1.058.9,1.607.12.238.226.481.341.721.1.215-.1-.275.033.079.058.157.12.314.177.472a2.067,2.067,0,0,0,1.928,1.468h1.648a2,2,0,1,0,0-4h-1.648l1.929,1.469a24.07,24.07,0,0,0-4.358-7.253,18.46,18.46,0,0,0-5.872-4.866A2,2,0,0,0,297,23.369Z"
              />
              <path
                class="b"
                d="M271.614,33.665a43.978,43.978,0,0,1,4.509-5.143c.794-.787,1.614-1.551,2.472-2.269.352-.3.709-.58,1.084-.846.2-.139.4-.275.6-.405l.193-.121q.5-.267-.275.007l-1.009-.273q-.468-.8-.326-.349a3.161,3.161,0,0,1,.011.424,4.594,4.594,0,0,0,.058,1.192,2.89,2.89,0,0,0,1.3,1.757c1.481.866,2.815-.093,4.056-.867a64.934,64.934,0,0,1,7.051-4.073,2.015,2.015,0,0,0,.717-2.736,2.046,2.046,0,0,0-2.736-.718,43.663,43.663,0,0,0-4.434,2.448c-.713.435-1.42.878-2.127,1.32l-.955.595a4.866,4.866,0,0,0-.437.268c-.5.386-.314-.164.407.107l.882.515c.174.14.137.919.218.328a3.113,3.113,0,0,0-.026-.715,4.974,4.974,0,0,0-.349-1.544,2.651,2.651,0,0,0-2.747-1.657c-1.528.2-3.08,1.745-4.2,2.7a47.391,47.391,0,0,0-7.386,8.036,2.014,2.014,0,0,0,.718,2.736,2.046,2.046,0,0,0,2.736-.718Z"
              />
              <path
                class="b"
                d="M309.312,34.543c.164-.044.326-.077.492-.113-.453.1.038.012.138.01.169,0,.336.009.5.019-.281-.016-.157-.027.052.018q.247.054.489.132c.176.057.327.137.074.014.152.074.3.151.448.238.054.032.484.352.149.075a4.871,4.871,0,0,1,.376.342c.07.072.363.462.123.116.081.118.159.238.229.362.046.079.089.16.129.242q-.092-.244-.017-.045a5.2,5.2,0,0,1,.269,1c-.068-.405.006.192.007.232.008.193.006.387,0,.581,0,.083-.076.632-.012.244-.027.161-.06.321-.1.48-.045.191-.1.379-.159.566-.035.106-.148.421-.042.162a6.055,6.055,0,0,1-.558,1.021s-.354.5-.147.23c-.12.157-.252.307-.385.454a10.224,10.224,0,0,1-.781.777c-.125.111-.252.221-.383.326.251-.2-.187.135-.238.171a10.732,10.732,0,0,1-1.019.625c-.173.093-.35.177-.527.263-.377.182.187-.066-.235.093a2.046,2.046,0,0,0-1.4,2.461,2.023,2.023,0,0,0,2.46,1.4c4.029-1.52,7.573-5.117,7.529-9.658a6.979,6.979,0,0,0-2.83-5.691,6.8,6.8,0,0,0-5.7-1,2,2,0,1,0,1.064,3.857Z"
              />
              <path
                class="b"
                d="M270.419,30.757a6.791,6.791,0,0,0-5.725.873,7.022,7.022,0,0,0-2.953,5.632c-.187,4.551,3.323,8.206,7.284,9.844a2,2,0,0,0,2.46-1.4,2.061,2.061,0,0,0-1.4-2.46c.351.144-.21-.108-.225-.116q-.264-.132-.519-.279a10.678,10.678,0,0,1-.917-.6c-.11-.082-.109-.079,0,.008-.079-.063-.156-.127-.233-.192-.128-.109-.253-.22-.376-.335a11.558,11.558,0,0,1-.83-.87c-.4-.462.174.279-.173-.22-.112-.161-.222-.323-.324-.49q-.126-.205-.239-.42c-.046-.086-.09-.172-.131-.26.058.151.062.16.011.029a6.722,6.722,0,0,1-.31-1.031c-.007-.029-.094-.635-.054-.241q-.03-.291-.036-.584c0-.194.011-.387.015-.581.009-.372-.03.08.013-.135a5.445,5.445,0,0,1,.282-1c-.147.354.084-.131.124-.2s.352-.481.079-.157a4.88,4.88,0,0,1,.346-.373c.074-.071.468-.356.117-.118.117-.079.234-.156.357-.227.051-.03.52-.265.291-.163s.185-.061.236-.077c.162-.05.327-.086.492-.125.5-.119-.378,0,.137-.015.17,0,.336,0,.506,0,.419,0-.306-.1.135.012.164.042.327.078.489.128a2.02,2.02,0,0,0,2.46-1.4,2.042,2.042,0,0,0-1.4-2.46Z"
              />
              <path
                class="b"
                d="M306.592,44.659A19.885,19.885,0,0,1,300.09,54,17.188,17.188,0,0,1,289.6,57.271a17.91,17.91,0,0,1-10.961-3.192,19.431,19.431,0,0,1-6.631-9.267c-.843-2.416-4.708-1.377-3.857,1.063,2.375,6.813,7.621,12.786,14.793,14.61,7.2,1.831,15.286.643,20.887-4.43a24.438,24.438,0,0,0,6.616-10.333c.827-2.443-3.035-3.492-3.857-1.063Z"
              />
              <path
                class="b"
                d="M278.762,57.8a21.566,21.566,0,0,1-.273,2.583l.071-.531c-.054.4-.124.8-.186,1.2-.037.235-.072.472-.125.7-.027.117-.057.234-.1.348-.136.407.238-.463.034-.084-.052.1-.285.417-.045.1s-.07.031-.143.106c-.119.122.446-.285.161-.133-.069.037-.134.082-.2.12a1.17,1.17,0,0,1-.228.113s.467-.175.168-.077q-.653.215-1.3.437a2,2,0,0,0,1.064,3.857,10.072,10.072,0,0,0,2.667-1.1,4.507,4.507,0,0,0,1.858-3.03q.212-1.258.369-2.524a18.365,18.365,0,0,0,.21-2.092,2,2,0,0,0-4,0Z"
              />
              <path
                class="b"
                d="M294.894,58.039c.084.954.175,1.9.326,2.851a9.616,9.616,0,0,0,.395,1.942,4.331,4.331,0,0,0,2.094,2.417c.562.279,1.173.486,1.759.714.491.191.985.378,1.473.577a2,2,0,0,0,1.541-.2A2,2,0,0,0,303.2,63.6a2.347,2.347,0,0,0-1.2-.919c-.836-.34-1.685-.647-2.523-.984l.478.2a3.657,3.657,0,0,1-.476-.24c-.062-.037-.118-.084-.181-.12.448.254.308.251.16.109-.045-.044-.084-.093-.129-.136-.157-.156.307.447.16.206a3.376,3.376,0,0,1-.2-.365l.2.478a10.6,10.6,0,0,1-.5-2.569l.071.532c-.075-.584-.12-1.17-.172-1.756a2.145,2.145,0,0,0-.586-1.414,2,2,0,0,0-3.414,1.414Z"
              />
              <path
                class="c"
                d="M71.556,118.546a12.581,12.581,0,0,1,3.621,2.565,23.753,23.753,0,0,1,5.689,8.358h1.54a4.729,4.729,0,0,1,3.336.367c2.584-8.47.758-17.461-4.681-22.134l-5.034-4.345c-3.274-3.433-8.955-4.715-14.986-4.27-7.794.576-12.919,3.154-17.206,7.972-4.906,5.511-6.873,15.068-4.707,23.262a4.788,4.788,0,0,1,4.3-.761c2.524-3.474,7.019-8.08,9.947-9.723.344-.193.785.068.924.682a4.314,4.314,0,0,1,.09,1.47c-.066.647.521,1.118,1.019.822,2.091-1.243,5.815-3.744,8.456-4.935Z"
              />
              <path
                class="b"
                d="M77.442,101.942c-5.96-6.049-16.575-5.9-24.13-3.46A24.3,24.3,0,0,0,37.579,114.5a30.742,30.742,0,0,0-.745,14.762c.477,2.526,4.333,1.456,3.857-1.063-1.273-6.746.053-14.782,4.792-19.987,4.755-5.22,11.365-7.324,18.325-7.2,3.852.065,8.01.926,10.805,3.764,1.81,1.837,4.638-.992,2.829-2.829Z"
              />
              <path
                class="b"
                d="M87.856,129.731c2.153-7.945,1.128-17.729-5.38-23.443-1.928-1.692-4.768,1.126-2.829,2.828,5.46,4.794,6.153,12.907,4.352,19.551-.674,2.488,3.183,3.549,3.857,1.064Z"
              />
              <path
                class="b"
                d="M67.664,134.2a3.912,3.912,0,0,1,.967-3.146,2.992,2.992,0,0,1,2.048-.873,3.207,3.207,0,0,1,2.683,1.258,3.937,3.937,0,0,1-.084,4.592,3.057,3.057,0,0,1-4.121.672A3.353,3.353,0,0,1,67.664,134.2Z"
              />
              <path
                class="b"
                d="M52.051,134.2a3.91,3.91,0,0,1,.968-3.146,2.989,2.989,0,0,1,2.047-.873,3.21,3.21,0,0,1,2.684,1.258,3.938,3.938,0,0,1-.085,4.592,3.057,3.057,0,0,1-4.121.672A3.353,3.353,0,0,1,52.051,134.2Z"
              />
              <path
                class="b"
                d="M70.546,120.273c.449.222.893.454,1.319.718.217.135.426.28.636.426.167.116.119.086-.015-.019q.206.162.4.331a22.927,22.927,0,0,1,2.595,2.638c.187.219.368.441.549.665.384.475-.11-.156.1.126.1.129.193.256.287.385.374.513.731,1.039,1.065,1.579.324.522.626,1.057.9,1.607.12.237.226.481.341.721.1.215-.1-.276.033.078.058.158.12.314.177.473a2.068,2.068,0,0,0,1.928,1.468h1.648a2,2,0,1,0,0-4H80.866l1.929,1.468a24.094,24.094,0,0,0-4.358-7.253,18.47,18.47,0,0,0-5.872-4.865,2,2,0,0,0-2.019,3.454Z"
              />
              <path
                class="b"
                d="M45.156,130.569a43.978,43.978,0,0,1,4.509-5.143c.794-.788,1.614-1.551,2.472-2.269.352-.3.709-.58,1.084-.846.2-.139.4-.275.6-.405l.193-.122q.5-.266-.275.008l-1.009-.273q-.468-.8-.326-.349a3.156,3.156,0,0,1,.011.424,4.6,4.6,0,0,0,.058,1.192,2.89,2.89,0,0,0,1.3,1.757c1.481.866,2.815-.093,4.056-.867a64.77,64.77,0,0,1,7.051-4.073,2.015,2.015,0,0,0,.717-2.736,2.046,2.046,0,0,0-2.736-.718,43.362,43.362,0,0,0-4.434,2.448c-.713.435-1.42.878-2.127,1.32-.318.2-.636.4-.955.594a5.117,5.117,0,0,0-.437.269c-.5.386-.314-.164.407.107l.882.515c.174.139.137.919.218.327a3.117,3.117,0,0,0-.026-.715,4.961,4.961,0,0,0-.349-1.543,2.651,2.651,0,0,0-2.747-1.657c-1.528.2-3.08,1.745-4.2,2.7A47.384,47.384,0,0,0,41.7,128.55a2.016,2.016,0,0,0,.718,2.737,2.046,2.046,0,0,0,2.736-.718Z"
              />
              <path
                class="b"
                d="M82.854,131.447c.164-.044.326-.077.492-.113-.453.1.038.012.138.01.169,0,.336.009.505.019-.281-.016-.157-.027.052.018a4.646,4.646,0,0,1,.489.132c.176.057.327.136.074.014.152.074.3.151.448.238.054.032.484.351.149.075a4.871,4.871,0,0,1,.376.342c.07.071.363.462.123.116.081.118.159.237.229.362.046.079.089.16.129.242q-.092-.244-.017-.046a5.233,5.233,0,0,1,.269,1c-.068-.405,0,.192.007.231.008.194.006.388,0,.581,0,.083-.076.633-.012.245-.027.161-.06.321-.1.48-.045.191-.1.379-.159.566-.035.106-.148.42-.042.162a6.055,6.055,0,0,1-.558,1.021s-.354.5-.147.23c-.12.157-.252.307-.385.454a10.032,10.032,0,0,1-.781.776c-.125.112-.252.222-.383.327.251-.2-.187.135-.238.17a10.54,10.54,0,0,1-1.019.626c-.173.093-.35.177-.527.263-.377.182.187-.066-.235.093a2.045,2.045,0,0,0-1.4,2.46,2.022,2.022,0,0,0,2.46,1.4c4.029-1.52,7.573-5.116,7.529-9.657a6.981,6.981,0,0,0-2.83-5.692,6.8,6.8,0,0,0-5.7-1,2,2,0,1,0,1.064,3.857Z"
              />
              <path
                class="b"
                d="M43.961,127.661a6.788,6.788,0,0,0-5.725.873,7.02,7.02,0,0,0-2.953,5.632c-.187,4.551,3.323,8.206,7.284,9.844a2,2,0,0,0,2.46-1.4,2.063,2.063,0,0,0-1.4-2.461c.351.145-.21-.108-.225-.115-.176-.088-.349-.182-.519-.28a10.6,10.6,0,0,1-.918-.6c-.109-.082-.108-.079.006.008-.079-.063-.156-.127-.233-.193q-.192-.162-.376-.334a11.558,11.558,0,0,1-.83-.87c-.4-.462.174.279-.173-.221-.112-.16-.222-.322-.324-.489q-.126-.207-.239-.42c-.046-.086-.09-.173-.131-.261.058.151.062.161.011.03a6.722,6.722,0,0,1-.31-1.031c-.007-.029-.094-.635-.054-.241q-.03-.291-.036-.584c0-.194.011-.387.015-.581.009-.372-.03.079.013-.135a5.445,5.445,0,0,1,.282-1c-.147.354.084-.131.124-.2s.352-.481.079-.157a4.88,4.88,0,0,1,.346-.373c.074-.071.468-.356.117-.118.117-.079.234-.157.356-.228.052-.029.521-.264.292-.162-.244.109.185-.061.236-.077.162-.05.327-.086.492-.125.5-.12-.378,0,.137-.015.17,0,.336,0,.506,0,.419,0-.306-.1.135.011.164.043.327.079.489.129a2.02,2.02,0,0,0,2.46-1.4,2.042,2.042,0,0,0-1.4-2.46Z"
              />
              <path
                class="b"
                d="M80.134,141.563a19.885,19.885,0,0,1-6.5,9.345,17.2,17.2,0,0,1-10.488,3.267,17.91,17.91,0,0,1-10.961-3.192,19.429,19.429,0,0,1-6.631-9.268c-.843-2.415-4.708-1.376-3.858,1.064,2.376,6.813,7.622,12.786,14.794,14.61,7.2,1.831,15.286.643,20.887-4.43a24.438,24.438,0,0,0,6.616-10.333c.827-2.444-3.035-3.492-3.857-1.063Z"
              />
              <path
                class="b"
                d="M52.3,154.7a21.566,21.566,0,0,1-.273,2.583l.071-.532c-.054.4-.124.8-.186,1.2-.037.235-.072.471-.125.7-.027.117-.057.234-.095.348-.136.406.238-.463.034-.084-.052.1-.285.416-.045.1s-.07.031-.143.106c-.119.122.446-.285.161-.133-.069.037-.134.082-.2.12a1.16,1.16,0,0,1-.228.112s.467-.174.168-.076c-.435.142-.87.289-1.3.436a2,2,0,0,0,1.064,3.858,10.072,10.072,0,0,0,2.667-1.1,4.509,4.509,0,0,0,1.858-3.031q.211-1.257.369-2.523a18.388,18.388,0,0,0,.21-2.092,2,2,0,0,0-4,0Z"
              />
              <path
                class="b"
                d="M68.436,154.943c.084.954.175,1.9.326,2.85a9.611,9.611,0,0,0,.395,1.943,4.334,4.334,0,0,0,2.094,2.417c.562.279,1.173.486,1.759.714.491.191.985.378,1.473.577a2,2,0,0,0,1.541-.2,2,2,0,0,0,.718-2.737,2.347,2.347,0,0,0-1.2-.919c-.836-.341-1.685-.648-2.523-.984l.478.2a3.657,3.657,0,0,1-.476-.24c-.062-.038-.118-.085-.181-.12.448.254.308.251.16.108-.045-.043-.084-.092-.129-.135-.157-.156.307.447.16.205a3.271,3.271,0,0,1-.2-.364l.2.478a10.6,10.6,0,0,1-.5-2.569l.071.532c-.075-.584-.12-1.17-.172-1.756a2.15,2.15,0,0,0-.586-1.415,2,2,0,0,0-3.414,1.415Z"
              />
              <path
                class="a"
                d="M40.019,226.694H37.441l.79,19.913c.777,21.138,1.486,49.642,1.951,76.766l.009.558c4.864,0,39.2-.386,45.339-.558.473-27.4.982-55.712,1.965-76.782,0,0,.552-11.081.992-19.9Z"
              />
              <path
                class="b"
                d="M1.932,347.378H123.545c2.574,0,2.578-4,0-4H1.932c-2.574,0-2.578,4,0,4Z"
              />
              <path
                class="b"
                d="M36.231,246.607c.717,19.555,1.2,39.118,1.609,58.681q.186,9.042.342,18.085c.044,2.571,4.044,2.579,4,0q-.531-30.89-1.448-61.772-.231-7.5-.5-14.994c-.095-2.566-4.095-2.578-4,0Z"
              />
              <path
                class="b"
                d="M85.5,246.591c-.906,19.522-1.278,39.068-1.642,58.605q-.169,9.088-.323,18.177c-.045,2.575,3.955,2.575,4,0,.356-20.624.692-41.252,1.379-61.868q.249-7.46.586-14.914c.119-2.573-3.881-2.567-4,0Z"
              />
              <path
                class="b"
                d="M60.851,256.891v67.043c0,2.573,4,2.578,4,0V256.891c0-2.574-4-2.578-4,0Z"
              />
              <path
                class="b"
                d="M40.182,325.934c12.566-.005,25.138-.232,37.7-.421,2.548-.038,5.1-.07,7.645-.14,2.568-.071,2.579-4.071,0-4-12.789.353-25.593.389-38.385.51-2.321.022-4.642.05-6.963.051-2.574,0-2.578,4,0,4Z"
              />
              <path
                class="b"
                d="M60.013,323.722q0,2.663,0,5.326c0,1.436.243,3.1-.245,4.476-.567,1.6-3.016,1.785-4.412,2.239a27.257,27.257,0,0,0-6.381,3.106c-2.069,1.349-3.8,2.858-6.2,3.628a18.346,18.346,0,0,1-6.95.83c-1.709-.124-4.328-.422-5.009-2.26a4.6,4.6,0,0,1,.918-4.889,74.853,74.853,0,0,1,11.526-9.734c2.089-1.47.093-4.94-2.019-3.454A81.076,81.076,0,0,0,28.9,333.349c-3.639,3.85-3.224,10.77,2.014,12.93,5.066,2.089,11.848,1.251,16.535-1.471,1.249-.725,2.332-1.7,3.54-2.485a26.6,26.6,0,0,1,4-2.166c2.173-.932,4.744-1.162,6.654-2.639,2.247-1.739,2.371-4.561,2.363-7.173-.007-2.208,0-4.415.005-6.623,0-2.574-4-2.578-4,0Z"
              />
              <path
                class="b"
                d="M61.569,323.7c0,1.959.031,3.918.04,5.876.011,2.155-.087,4.456,1.051,6.381,1.307,2.209,3.837,2.814,6.124,3.5a24.2,24.2,0,0,1,7.349,3.852,20.609,20.609,0,0,0,16.641,3.609c2.685-.6,4.99-1.948,5.92-4.637a8.661,8.661,0,0,0-.659-7.354c-1.4-2.284-3.813-4.137-5.8-5.887a91.34,91.34,0,0,0-7.763-6.057c-2.11-1.484-4.11,1.982-2.019,3.454a86.052,86.052,0,0,1,10.442,8.667c1.344,1.3,2.55,2.583,2.326,4.606a4.066,4.066,0,0,1-.76,2.169,5.827,5.827,0,0,1-3.168,1.268,16.8,16.8,0,0,1-13.136-3.292,29.207,29.207,0,0,0-6.534-3.629c-.923-.375-1.868-.65-2.821-.935a6.247,6.247,0,0,1-2.376-.988c-1.214-1.083-.805-3.531-.813-4.981-.011-1.875-.037-3.75-.039-5.626,0-2.573-4-2.578-4,0Z"
              />
              <path
                class="d"
                d="M218.675,142.137c-9.458,5.1-19.71,11.036-30.468,13.708a1,1,0,0,0,.012,1.942l9.282,2.267a1.007,1.007,0,0,1,.55,1.61C183.155,179.8,155.5,196.7,131.241,206.7a1.21,1.21,0,0,0,.722,2.3c15.677-2.948,34.46-9.124,43.484-13.975,11.786-6.335,23.639-14.156,30.535-23.219a.965.965,0,0,1,1.585.176c1.419,2.481,3.491,5.774,5.409,8.97a1,1,0,0,0,1.836-.3,364.639,364.639,0,0,0,5.327-37.541A1,1,0,0,0,218.675,142.137Z"
              />
              <path
                class="b"
                d="M350.016,246.474H228.4a2.029,2.029,0,0,0-2,2v96.9a2.029,2.029,0,0,0,2,2H350.016a2.03,2.03,0,0,0,2-2v-96.9c0-2.574-4-2.578-4,0v96.9l2-2H228.4l2,2v-96.9l-2,2H350.016C352.589,250.474,352.594,246.474,350.016,246.474Z"
              />
              <path
                class="e"
                d="M216.207,110.607h0a21.145,21.145,0,0,1,4.722-8.486A15.016,15.016,0,0,1,229.4,97.53v0a16.1,16.1,0,0,1-8.928-4.662c-2.477-2.674-4-8.545-4.261-9.057-.215.512-2.03,6.429-4.508,9.1a15.362,15.362,0,0,1-8.7,4.616v0a14.116,14.116,0,0,1,8.586,4.628A23.656,23.656,0,0,1,216.207,110.607Z"
              />
              <path
                class="b"
                d="M216.207,112.607h0a2.028,2.028,0,0,0,1.929-1.468,15.428,15.428,0,0,1,11.8-11.681A2.017,2.017,0,0,0,231.4,97.53v0a2.01,2.01,0,0,0-1.468-1.928c-3.462-.553-7.12-2.361-8.973-5.443-1.4-2.322-1.933-4.918-3.021-7.357-.782-1.755-3.1-.924-3.655.478a41.433,41.433,0,0,1-3.042,6.921,12.648,12.648,0,0,1-8.768,5.4,2.013,2.013,0,0,0-1.469,1.928v0a2.015,2.015,0,0,0,1.469,1.928,12.844,12.844,0,0,1,7.559,3.952,18.994,18.994,0,0,1,4.243,7.731c.6,2.5,4.463,1.442,3.857-1.064a23.28,23.28,0,0,0-5.272-9.5,16.319,16.319,0,0,0-9.324-4.98l1.468,1.929v0l-1.468,1.929a16.518,16.518,0,0,0,10.813-6.706c1.759-2.572,2.658-5.545,3.791-8.41l-3.655.478c-.217-.485-.127-.309-.018.036.072.231.15.461.225.692.246.747.5,1.492.78,2.227a23.117,23.117,0,0,0,2.541,5.187,16.838,16.838,0,0,0,10.856,6.5L227.4,97.526v0l1.469-1.929c-7.088,1.32-12.975,7.489-14.592,14.474l1.928-1.468h0C213.633,108.587,213.63,112.587,216.207,112.607Z"
              />
              <path
                class="e"
                d="M344.016,48.336h0a21.145,21.145,0,0,1,4.722-8.486,15.024,15.024,0,0,1,8.473-4.592v0a16.1,16.1,0,0,1-8.928-4.662c-2.477-2.674-4.005-8.546-4.261-9.057-.215.512-2.03,6.429-4.508,9.1a15.358,15.358,0,0,1-8.7,4.617v0a14.111,14.111,0,0,1,8.586,4.628A23.656,23.656,0,0,1,344.016,48.336Z"
              />
              <path
                class="a"
                d="M286.565,72.556A19.905,19.905,0,0,1,278.259,70c.044,18.958.2,40.149-.4,59.8,5.356-.007,17.762-.007,22.963-.007-.5-19.832-.555-41.818-.558-60.631A21.1,21.1,0,0,1,286.565,72.556Z"
              />
              <path
                class="a"
                d="M266.477,129.791H263.9c.35,8.821.79,19.913.79,19.913.777,21.137,1.486,49.642,1.951,76.765l.009.558c4.864,0,39.2-.386,45.339-.558.473-27.4.982-55.711,1.965-76.782,0,0,.552-11.08.992-19.9Z"
              />
              <path
                class="b"
                d="M262.689,149.7c.717,19.554,1.2,39.117,1.609,58.68q.188,9.042.342,18.085c.044,2.571,4.044,2.579,4,0q-.531-30.889-1.448-61.771-.231-7.5-.5-14.994c-.1-2.567-4.1-2.579-4,0Z"
              />
              <path
                class="b"
                d="M311.953,149.687c-.906,19.522-1.278,39.068-1.642,58.606q-.17,9.087-.323,18.176c-.045,2.575,3.955,2.576,4,0,.356-20.624.692-41.252,1.379-61.868q.249-7.458.586-14.914c.119-2.573-3.881-2.567-4,0Z"
              />
              <path
                class="b"
                d="M287.309,159.987V227.03c0,2.574,4,2.578,4,0V159.987c0-2.574-4-2.578-4,0Z"
              />
              <path
                class="b"
                d="M266.64,229.03c12.566,0,25.138-.231,37.7-.421,2.548-.038,5.1-.069,7.645-.14,2.568-.071,2.579-4.071,0-4-12.789.353-25.593.389-38.385.51-2.321.022-4.642.05-6.963.051-2.574,0-2.578,4,0,4Z"
              />
              <path
                class="b"
                d="M286.471,226.818q0,2.664,0,5.326c0,1.436.243,3.1-.245,4.476-.567,1.6-3.015,1.785-4.412,2.239a27.257,27.257,0,0,0-6.381,3.106c-2.069,1.349-3.8,2.858-6.2,3.628a18.306,18.306,0,0,1-6.95.83c-1.709-.124-4.328-.422-5.009-2.26a4.6,4.6,0,0,1,.918-4.889,74.909,74.909,0,0,1,11.526-9.734c2.089-1.47.093-4.939-2.019-3.454a81.025,81.025,0,0,0-12.335,10.36c-3.639,3.849-3.224,10.769,2.014,12.929,5.066,2.089,11.848,1.251,16.535-1.471,1.249-.725,2.332-1.7,3.54-2.485a26.508,26.508,0,0,1,4-2.165c2.173-.933,4.744-1.162,6.654-2.64,2.247-1.738,2.371-4.561,2.363-7.173-.007-2.208,0-4.415,0-6.623,0-2.574-4-2.578-4,0Z"
              />
              <path
                class="b"
                d="M288.027,226.8c0,1.958.031,3.917.04,5.876.011,2.154-.087,4.456,1.051,6.38,1.307,2.21,3.838,2.814,6.124,3.5a24.177,24.177,0,0,1,7.349,3.851,20.6,20.6,0,0,0,16.641,3.609c2.685-.6,4.99-1.948,5.92-4.637a8.661,8.661,0,0,0-.659-7.354c-1.4-2.283-3.813-4.136-5.805-5.887a91.34,91.34,0,0,0-7.763-6.057c-2.11-1.484-4.11,1.983-2.019,3.454a86.237,86.237,0,0,1,10.442,8.667c1.344,1.3,2.55,2.583,2.326,4.606a4.057,4.057,0,0,1-.76,2.169,5.827,5.827,0,0,1-3.168,1.268,16.8,16.8,0,0,1-13.136-3.292,29.207,29.207,0,0,0-6.534-3.629c-.923-.375-1.868-.65-2.821-.935a6.247,6.247,0,0,1-2.376-.988c-1.214-1.083-.805-3.531-.813-4.981-.011-1.875-.037-3.75-.039-5.625,0-2.574-4-2.579-4,0Z"
              />
              <path
                class="f"
                d="M278.305,98.1c.027-12.195-.054-24.23-.054-35.277-8.259,3.168-16.807,7.345-21.778,14.74L243.918,84.1c.4,5.22.4,9,1.1,16.621a27.706,27.706,0,0,0,.971,5.872c1.309,4.141,4.933,7.658,9.247,8.112a13.884,13.884,0,0,0,8.083-1.33c-.145,11.457-.306,22.351-.537,34.924a1.346,1.346,0,0,0,1.29,1.376,63.364,63.364,0,0,0,10.245.017,3.616,3.616,0,0,0,2.821-3.306C278.035,131.357,278.268,114.58,278.305,98.1Z"
              />
              <path
                class="f"
                d="M314.965,93.77c.223,19.682.412,35.1.769,54.524a1.346,1.346,0,0,1-1.291,1.376,63.353,63.353,0,0,1-10.244.017,3.559,3.559,0,0,1-2.821-3.306c-.6-25.253-1.061-61.312-1.113-83.563,8.259,3.168,16.807,7.345,21.778,14.74,4.294,6.389,5.749,14.306,6.283,21.985.89,12.79,1.921,27.635,2.659,40.976a1.311,1.311,0,0,1-1.311,1.391H317.733"
              />
              <path
                class="b"
                d="M261.55,93.77q-.185,16.328-.408,32.653-.117,8.055-.257,16.109-.037,2.149-.076,4.3c-.024,1.328-.132,2.66.83,3.717a3.947,3.947,0,0,0,2.988,1.143c1.3.056,2.6.136,3.9.179,1.263.041,2.529.052,3.792-.012a8.838,8.838,0,0,0,3.925-.753,6.165,6.165,0,0,0,2.927-5.349c.3-5.082.508-10.169.667-15.257.336-10.778.438-21.562.463-32.344.026-11.78-.053-23.56-.054-35.339a2.014,2.014,0,0,0-2.532-1.929c-8.754,3.373-17.53,7.7-22.973,15.66-1.456,2.13,2.009,4.133,3.454,2.019,4.8-7.014,12.887-10.857,20.583-13.822l-2.532-1.928c0,19.812.219,39.627-.2,59.437q-.155,7.4-.45,14.8-.146,3.516-.336,7.031c-.088,1.6.175,3.483-1.832,3.7a47.8,47.8,0,0,1-7.444-.024,4.8,4.8,0,0,0-1.554-.074l-.069,0q-.474.011.412.6c.011,0,.02-1.053.018-.976q.037-2.039.073-4.077.133-7.634.246-15.268.253-17.1.431-34.2c.03-2.574-3.97-2.576-4,0Z"
              />
              <path
                class="b"
                d="M308.126,95.505c1.865-3.868,3.689-7.755,5.332-11.723.636-1.538,1.374-3.1,1.882-4.68.494-1.539-.476-2.67-1.368-3.8-.869-1.1-1.765-2.18-2.658-3.262a2.015,2.015,0,0,0-2.828,0,2.045,2.045,0,0,0,0,2.829c.774.937,1.55,1.874,2.309,2.824.141.176.367.631.578.729l.14.178q.2-1.236-.055-.518A9.442,9.442,0,0,0,311,79.236c-.54,1.373-1.086,2.744-1.659,4.1-1.341,3.188-3.077,6.843-4.668,10.146a2.054,2.054,0,0,0,.717,2.737,2.018,2.018,0,0,0,2.736-.718Z"
              />
              <path
                class="b"
                d="M273.732,93.486c-1.608-3.324-3.264-6.817-4.66-10.132-.568-1.348-1.112-2.707-1.647-4.069a6.164,6.164,0,0,0-.58-1.441l.047.757.139-.178c.2-.079.448-.566.578-.729.76-.95,1.535-1.887,2.31-2.824a2.058,2.058,0,0,0,0-2.829,2.016,2.016,0,0,0-2.829,0c-.853,1.034-1.708,2.066-2.542,3.116-.851,1.072-1.883,2.163-1.557,3.649a31.4,31.4,0,0,0,1.944,4.941c1.648,3.98,3.468,7.881,5.343,11.758a2.017,2.017,0,0,0,2.736.718,2.043,2.043,0,0,0,.718-2.737Z"
              />
              <path
                class="b"
                d="M277.863,131.794h22.95c2.574,0,2.578-4,0-4h-22.95c-2.573,0-2.578,4,0,4Z"
              />
              <path
                class="b"
                d="M277.212,71.707a23.312,23.312,0,0,0,24.079-.83c2.111-1.445.113-4.913-2.019-3.454a19.309,19.309,0,0,1-20.041.83c-2.234-1.288-4.251,2.167-2.019,3.454Z"
              />
              <path
                class="b"
                d="M312.965,93.77q.168,14.783.365,29.563.1,7.273.222,14.547.062,3.753.129,7.506.017.966.035,1.932c0,.129-.011.965.018.976l.24-.3q.476-.337.1-.31c-.137-.143-1.109.051-1.354.064-.624.031-1.247.064-1.871.09-1.178.049-2.358.082-3.537.06a8.509,8.509,0,0,1-3.031-.246,1.75,1.75,0,0,1-.906-1.272,24.513,24.513,0,0,1-.155-3.769q-.292-7.593-.459-15.189c-.241-10.381-.36-20.765-.425-31.148-.07-11.153-.074-22.305-.074-33.457l-2.532,1.928C305.49,66.964,311.342,69.6,316,73.735c4.857,4.308,7.6,10.033,9.012,16.3,1.518,6.713,1.609,13.724,2.078,20.568q.744,10.878,1.42,21.762.192,3.183.374,6.369.025.447.05.9t.05.891q1.264-.711.381-.609a10.923,10.923,0,0,0-2.4,0h-9.235c-2.574,0-2.578,4,0,4H326.6c1.456,0,3.367.315,4.683-.415,1.844-1.024,1.7-2.944,1.6-4.762-.449-7.928-.963-15.852-1.5-23.775-.513-7.6-.676-15.347-1.914-22.874-1.171-7.124-3.778-14.126-8.827-19.425C315.259,67,307.972,63.653,300.8,60.889a2.014,2.014,0,0,0-2.532,1.929c0,21.776,0,43.557.516,65.328q.19,8.018.5,16.03c.093,2.3.116,4.476,1.927,6.158,1.842,1.712,4.645,1.575,7,1.572,1.163,0,2.326-.05,3.487-.106a16.406,16.406,0,0,0,3.579-.247c2.93-.846,2.441-4.037,2.4-6.407q-.143-7.92-.261-15.84-.266-17.768-.451-35.536c-.029-2.572-4.029-2.579-4,0Z"
              />
              <path
                class="b"
                d="M241.918,84.1c.256,3.4.386,6.805.6,10.206q.219,3.441.541,6.873a24.768,24.768,0,0,0,1.306,6.8,14.011,14.011,0,0,0,8.078,8.124c3.765,1.388,8.126.733,11.686-.905a2.015,2.015,0,0,0,.717-2.736,2.047,2.047,0,0,0-2.736-.718,11.293,11.293,0,0,1-8.947.359,10.441,10.441,0,0,1-5.65-7.589,78.211,78.211,0,0,1-1.072-11.466c-.175-2.983-.3-5.967-.525-8.946-.192-2.551-4.194-2.572-4,0Z"
              />
              <path
                class="a"
                d="M242.785,79.892c-.2-.429-.42-.869-.641-1.3a20.491,20.491,0,0,0-1.523-2.576,6.105,6.105,0,0,1-1.261-3.859,7.07,7.07,0,0,1,.61-2.388c1.4-2.177,2.61-4.079,4.071-5.925a15.472,15.472,0,0,1,1.13-1.231,3.513,3.513,0,0,1,2.442-1.012,2.921,2.921,0,0,1,2.1,1.163c1.915.6,2.307-.6,3.158-1.269a3.136,3.136,0,0,1,3.3.036,13.094,13.094,0,0,1,2.575,1.994,3.657,3.657,0,0,1,1.13,2.143,1.624,1.624,0,0,1-.382,1.523,2.816,2.816,0,0,1-2.186.8c.639,1.3,1.113,2.262,1.113,2.262a3.236,3.236,0,0,1,.251,1.364,2.249,2.249,0,0,1-.039.562,2.4,2.4,0,0,1-.235.552c-.867,1.645-2.449,3.585-1.715,5.579,1.808,5.242,1.559,7.856-.14,9.339a12.328,12.328,0,0,1-4.656,2.477,10.947,10.947,0,0,1-3.114.269,5.734,5.734,0,0,1-2.361-1.371,5.971,5.971,0,0,1-1.065-2.234c-.266-.961-1.079-3.34-1.692-4.89C243.443,81.34,243.135,80.632,242.785,79.892Z"
              />
              <path
                class="b"
                d="M258.322,66.266c-2.409-1.83-4.881-3.6-7.446-5.205a10.948,10.948,0,0,0-2.49-1.325,4.971,4.971,0,0,0-4.34,1.208,18.776,18.776,0,0,0-3.041,3.647,24.725,24.725,0,0,0-3.054,4.819,7.981,7.981,0,0,0-.566,3.5,10.3,10.3,0,0,0,1.963,4.791,36.064,36.064,0,0,1,3.473,7.735,22.444,22.444,0,0,0,1.4,3.912,6.622,6.622,0,0,0,4.14,3.013,9.064,9.064,0,0,0,3.547-.211,11.346,11.346,0,0,0,3.407-1.261c2.376-1.273,4.221-2.979,4.546-5.75a13.061,13.061,0,0,0-.39-4.442c-.23-.99-.613-1.935-.861-2.916a2.707,2.707,0,0,1,.4-2.076c.792-1.51,1.738-2.726,1.659-4.514a7.434,7.434,0,0,0-1.943-4.612c-1.654-1.976-4.471.867-2.828,2.829a2.927,2.927,0,0,1,.776,2.211c-.051.774.154-.211-.086.261-.139.273-.3.534-.458.8a18.187,18.187,0,0,0-1.016,1.942,6.1,6.1,0,0,0-.469,3.85c.343,1.469.959,2.849,1.188,4.354a7.473,7.473,0,0,1,.038,2.125,1.784,1.784,0,0,1-.74,1.287,9.124,9.124,0,0,1-5.095,2.171,4.539,4.539,0,0,0-.769.049c-.225.069-.41-.207.146.052a4.2,4.2,0,0,1-1.519-.825c-.674-.775-.839-2.188-1.162-3.148a49.812,49.812,0,0,0-2.752-6.735c-.926-1.82-2.9-3.856-2.584-5.911a7.4,7.4,0,0,1,1.57-3.075c.789-1.206,1.583-2.43,2.488-3.553a6.665,6.665,0,0,1,1.331-1.4c.177-.115.433-.128.592-.241.365-.015.314-.035-.153-.063.137.049.13.045-.02-.014-.041.049-.1-.064.187.106.182.109.374.206.558.313.481.279.952.576,1.42.876,2.378,1.526,4.684,3.171,6.933,4.88A2.014,2.014,0,0,0,259.04,69a2.05,2.05,0,0,0-.718-2.736Z"
              />
              <path
                class="b"
                d="M252.7,64.337a7.446,7.446,0,0,0,1-.859c.094-.1.186-.2.283-.3.063-.064.129-.126.2-.185l-.206.157a1.853,1.853,0,0,1,.2-.121q.287-.138-.158.065a1.365,1.365,0,0,0,.341-.086q-.476.056-.237.037c.06,0,.12-.008.181-.008a1.4,1.4,0,0,0,.364.018q-.492-.073-.166-.016c.08.017.161.036.24.057.119.032.235.075.352.112.4.126-.383-.217-.034-.008.113.067.231.125.344.192a4.611,4.611,0,0,1,.827.561c-.359-.346-.011,0,.062.056q.206.169.406.347c.247.217.5.435.728.669.082.083.162.2.251.276-.186-.248-.218-.285-.1-.114.033.05.065.1.095.152s.06.1.088.156q.138.287-.051-.15a1.461,1.461,0,0,0,.121.349c.036.124.062.248.092.373.1.4-.07-.442-.007.064q-.007.245.045-.236a1.565,1.565,0,0,1-.056.214l.117-.28q-.16.262.132-.137a1.3,1.3,0,0,0-.183.187c-.188.234.454-.27.082-.068a1.377,1.377,0,0,0-.318.178l.271-.113c-.074.028-.149.054-.224.076-.477.139.013-.032.035.027,0,0-.511.008-.554.005a2.012,2.012,0,0,0-2,2,2.046,2.046,0,0,0,2,2,4.729,4.729,0,0,0,3.72-1.464,4.333,4.333,0,0,0,.335-4.827,8.586,8.586,0,0,0-2.752-2.948,7.365,7.365,0,0,0-3.962-1.7,4.507,4.507,0,0,0-2.449.525,4.44,4.44,0,0,0-1,.775c-.129.127-.25.263-.376.393-.1.1-.529.451-.1.135a2.177,2.177,0,0,0-.919,1.2,2.043,2.043,0,0,0,.2,1.541,2.022,2.022,0,0,0,2.736.717Z"
              />
              <path
                class="f"
                d="M37.092,190.674c-.222,19.682-.411,35.1-.768,54.524a1.346,1.346,0,0,0,1.29,1.376,63.364,63.364,0,0,0,10.245.017,3.56,3.56,0,0,0,2.821-3.306c.6-25.253,1.061-61.312,1.113-83.564-8.259,3.169-16.807,7.346-21.778,14.741-4.294,6.389-5.749,14.305-6.283,21.984-.89,12.791-1.921,27.636-2.659,40.977a1.31,1.31,0,0,0,1.311,1.39H34.325"
              />
              <path
                class="f"
                d="M88.507,190.674c.223,19.682.412,35.1.769,54.524a1.346,1.346,0,0,1-1.291,1.376,63.353,63.353,0,0,1-10.244.017,3.56,3.56,0,0,1-2.821-3.306c-.6-25.253-1.061-61.312-1.113-83.564,8.259,3.169,16.807,7.346,21.778,14.741,4.294,6.389,5.749,14.305,6.283,21.984.89,12.791,1.921,27.636,2.659,40.977a1.31,1.31,0,0,1-1.311,1.39H91.275"
              />
              <path
                class="b"
                d="M35.092,190.674q-.184,16.327-.408,32.653-.117,8.055-.257,16.109-.038,2.149-.076,4.3c-.024,1.328-.132,2.66.83,3.717a3.947,3.947,0,0,0,2.988,1.143c1.3.056,2.6.136,3.9.179,1.263.041,2.529.052,3.792-.013a8.837,8.837,0,0,0,3.925-.752,6.165,6.165,0,0,0,2.927-5.349c.3-5.082.508-10.169.667-15.257.336-10.778.438-21.562.463-32.345.026-11.779-.053-23.559-.054-35.339a2.014,2.014,0,0,0-2.532-1.928c-6.435,2.479-12.825,5.4-18.033,10.018-5.385,4.776-8.548,11.315-10.086,18.268-1.629,7.369-1.741,15.061-2.253,22.566q-.82,12.022-1.547,24.053-.091,1.581-.182,3.162a5.845,5.845,0,0,0,.295,3.18c.99,1.853,2.915,1.773,4.738,1.773H34.325c2.574,0,2.578-4,0-4H22.692q-.883-.1.381.61c.221-.176.111-1.981.126-2.237q.09-1.586.184-3.171.644-10.887,1.4-21.766c.469-6.912.567-13.992,1.768-20.825,1.106-6.293,3.314-12.5,7.826-17.174,4.886-5.06,11.479-8.107,17.951-10.6l-2.532-1.929c0,19.813.219,39.627-.2,59.437q-.155,7.4-.45,14.8-.146,3.516-.336,7.031c-.088,1.6.175,3.483-1.832,3.7a48.051,48.051,0,0,1-7.444-.024,4.826,4.826,0,0,0-1.554-.075l-.069.006q-.474.011.412.6c.011,0,.02-1.053.018-.976q.037-2.039.073-4.078.133-7.633.246-15.267.253-17.1.431-34.2c.03-2.575-3.97-2.576-4,0Z"
              />
              <path
                class="b"
                d="M100.725,238.864c1.168,3.7,2.336,7.4,3.279,11.159a35.2,35.2,0,0,1,1.446,10.262l.273-1.01a7.762,7.762,0,0,1-.652,1.177c.091-.128-.477.643-.231.294-.108.152-.355.056-.157.122.251.084-.142.051-.163.04.682.328,0-.255-.012-.023.008-.115.451.249.05,0-.19-.12-.239-.072-.006.03a3.914,3.914,0,0,1-.415-.219c-.118-.071-.232-.15-.344-.231-.172-.123.2.177-.076-.072s-.507-.48-.743-.739c-.113-.125-.222-.252-.331-.381.006.008-.367-.467-.206-.254a24.993,24.993,0,0,1-2.371-3.945q-.251-.5-.485-1.015c-.067-.146-.132-.293-.2-.44-.249-.558.138.351-.081-.185-.2-.484-.384-.973-.54-1.473-.764-2.449-4.627-1.4-3.857,1.064a29,29,0,0,0,2.8,6.088c1.2,2.016,2.749,4.316,4.961,5.315,2.724,1.23,5.169-.4,6.39-2.887.738-1.506.415-3.542.219-5.162a55.318,55.318,0,0,0-1.011-5.714c-.995-4.35-2.345-8.609-3.687-12.861-.773-2.446-4.636-1.4-3.858,1.063Z"
              />
              <path
                class="b"
                d="M88.441,248.521a13.848,13.848,0,0,0-.2,3.076,10.95,10.95,0,0,0,.518,2.911,6.247,6.247,0,0,0,1.589,2.637,4.427,4.427,0,0,0,3.073,1.195,6.957,6.957,0,0,0,3.888-1.52,2.181,2.181,0,0,0,.92-1.195,2.047,2.047,0,0,0-.2-1.541,2.017,2.017,0,0,0-1.2-.919,1.947,1.947,0,0,0-1.541.2,7.785,7.785,0,0,1-1.6.949l.477-.2a4.143,4.143,0,0,1-.995.276l.531-.071a2.843,2.843,0,0,1-.708,0l.532.072a2.5,2.5,0,0,1-.577-.161l.478.2a2.568,2.568,0,0,1-.505-.3l.405.313a3.119,3.119,0,0,1-.532-.539l.313.4a4.569,4.569,0,0,1-.547-.955l.2.478a7.868,7.868,0,0,1-.518-1.979l.071.532a11.514,11.514,0,0,1,0-3.019l-.071.532c.014-.1.03-.208.047-.312a2.175,2.175,0,0,0-.2-1.542,2,2,0,0,0-2.736-.717,1.942,1.942,0,0,0-.919,1.195Z"
              />
              <path
                class="b"
                d="M20.788,237.8c-1.185,3.753-2.371,7.509-3.322,11.33-.868,3.493-1.767,7.275-1.559,10.9.16,2.778,3.086,5.422,5.9,4.725,2.372-.588,4.069-2.86,5.326-4.8a28.725,28.725,0,0,0,3.333-6.938c.768-2.463-3.092-3.517-3.858-1.064-.155.5-.342.989-.54,1.473-.141.345.055-.124-.043.1-.064.146-.128.291-.194.436q-.231.508-.479,1.01a25,25,0,0,1-2.418,4.039c.067-.088-.351.428-.47.561-.235.264-.483.511-.742.752-.111.1-.306.259-.074.083a4.633,4.633,0,0,1-.414.281c-.113.067-.229.127-.346.186-.19.1.335-.044-.006-.015-.421.036-.1.168-.019.021,0,0-.535.041-.142.009.347-.028-.1.024-.138-.066q.345.15.146.042a1.814,1.814,0,0,1-.2-.124c.334.441-.384-.486-.171-.2a7.137,7.137,0,0,1-.713-1.267l.273,1.01a35.2,35.2,0,0,1,1.446-10.262c.943-3.762,2.111-7.462,3.279-11.159.777-2.46-3.084-3.513-3.857-1.063Z"
              />
              <path
                class="b"
                d="M33.072,249.585c.017.1.033.208.047.312l-.071-.532a11.514,11.514,0,0,1,0,3.019l.072-.532a7.954,7.954,0,0,1-.518,1.979l.2-.478a4.565,4.565,0,0,1-.546.955l.312-.4a3.084,3.084,0,0,1-.532.539l.405-.313a2.532,2.532,0,0,1-.5.3l.477-.2a2.5,2.5,0,0,1-.576.161l.531-.072a2.843,2.843,0,0,1-.708,0l.532.071a4.15,4.15,0,0,1-1-.276l.478.2a7.733,7.733,0,0,1-1.6-.949,2.01,2.01,0,0,0-1.541-.2,2.038,2.038,0,0,0-1.2.919,2.017,2.017,0,0,0-.2,1.541,2.321,2.321,0,0,0,.919,1.195c1.789,1.333,4.408,2.222,6.4.764,1.816-1.326,2.443-3.512,2.639-5.657a13.549,13.549,0,0,0-.173-3.406,2,2,0,0,0-.92-1.195,2,2,0,0,0-2.736.717,2.3,2.3,0,0,0-.2,1.542Z"
              />
              <path
                class="b"
                d="M81.668,192.409c1.865-3.869,3.689-7.755,5.332-11.723.636-1.538,1.374-3.1,1.882-4.68.494-1.539-.476-2.671-1.368-3.8-.869-1.1-1.765-2.181-2.658-3.262a2.013,2.013,0,0,0-2.828,0,2.044,2.044,0,0,0,0,2.828c.774.938,1.55,1.875,2.309,2.824.141.177.367.632.578.73l.14.178q.2-1.236-.055-.518a9.492,9.492,0,0,0-.458,1.152c-.54,1.374-1.086,2.745-1.659,4.1-1.341,3.188-3.077,6.843-4.668,10.146a2.054,2.054,0,0,0,.717,2.737,2.018,2.018,0,0,0,2.736-.718Z"
              />
              <path
                class="b"
                d="M47.274,190.39c-1.608-3.324-3.264-6.817-4.66-10.132-.568-1.348-1.112-2.708-1.647-4.069-.088-.223-.414-1.375-.58-1.441l.047.757.139-.178c.2-.079.448-.567.578-.73.76-.949,1.535-1.886,2.31-2.824a2.056,2.056,0,0,0,0-2.828,2.016,2.016,0,0,0-2.829,0c-.853,1.034-1.708,2.066-2.542,3.116-.851,1.072-1.883,2.162-1.557,3.649a31.347,31.347,0,0,0,1.944,4.94c1.648,3.98,3.468,7.882,5.343,11.759a2.019,2.019,0,0,0,2.736.718,2.043,2.043,0,0,0,.718-2.737Z"
              />
              <path
                class="b"
                d="M74.363,224.694H51.123c-2.573,0-2.578,4,0,4h23.24c2.574,0,2.578-4,0-4Z"
              />
              <path
                class="b"
                d="M86.507,190.674q.178,15.664.39,31.327.109,7.664.239,15.326.035,2,.07,4,.016.96.034,1.921l.018.969c.006.325-.242,1.4.258.677.365-.528.251-.22-.085-.3a3.929,3.929,0,0,0-.966.045c-.548.027-1.1.057-1.645.082-1.245.057-2.492.1-3.739.081-1.736-.023-3.993.3-4.178-1.908-.188-2.241-.184-4.518-.261-6.766Q76.4,229,76.251,221.859c-.213-9.971-.319-19.943-.378-29.916-.063-10.74-.066-21.481-.066-32.222l-2.532,1.929c5.757,2.218,11.609,4.857,16.268,8.989,4.857,4.308,7.595,10.033,9.012,16.3,1.518,6.714,1.609,13.725,2.078,20.568q.744,10.88,1.42,21.762.192,3.185.374,6.37c.017.3.034.6.05.9s.034.595.05.892q1.265-.711.381-.61a10.923,10.923,0,0,0-2.4,0H91.275c-2.574,0-2.578,4,0,4h8.867c1.456,0,3.367.315,4.683-.416,1.844-1.023,1.7-2.943,1.6-4.761-.449-7.928-.963-15.853-1.5-23.775-.513-7.6-.676-15.347-1.914-22.874-1.171-7.124-3.778-14.126-8.827-19.425-5.387-5.655-12.674-9.005-19.849-11.769a2.014,2.014,0,0,0-2.532,1.928c0,20.857,0,41.716.453,62.569q.165,7.631.432,15.258.062,1.695.129,3.39a15.2,15.2,0,0,0,.328,3.729,5.622,5.622,0,0,0,5.03,3.976,50.136,50.136,0,0,0,7.885.02,7.947,7.947,0,0,0,3.51-.518,3.531,3.531,0,0,0,1.7-3.191c.1-5.641-.2-11.319-.286-16.961q-.285-18.659-.478-37.319c-.029-2.572-4.029-2.579-4,0Z"
              />
              <path
                class="b"
                d="M350.016,246.474H228.4a2.029,2.029,0,0,0-2,2v96.9a2.029,2.029,0,0,0,2,2H350.016a2.03,2.03,0,0,0,2-2v-96.9c0-2.574-4-2.578-4,0v96.9l2-2H228.4l2,2v-96.9l-2,2H350.016C352.589,250.474,352.594,246.474,350.016,246.474Z"
              />
              <path
                class="b"
                d="M344.016,50.336h0a2.028,2.028,0,0,0,1.929-1.468,15.428,15.428,0,0,1,11.8-11.681,2.018,2.018,0,0,0,1.468-1.929v0a2.01,2.01,0,0,0-1.468-1.928c-3.462-.553-7.12-2.361-8.973-5.443-1.4-2.322-1.933-4.918-3.021-7.357-.782-1.755-3.1-.924-3.655.478a41.433,41.433,0,0,1-3.042,6.921,12.648,12.648,0,0,1-8.768,5.4,2.013,2.013,0,0,0-1.469,1.928v0a2.015,2.015,0,0,0,1.469,1.928,12.844,12.844,0,0,1,7.559,3.952,18.994,18.994,0,0,1,4.243,7.731c.6,2.5,4.463,1.442,3.857-1.064a23.273,23.273,0,0,0-5.272-9.5,16.319,16.319,0,0,0-9.324-4.98l1.468,1.929v0l-1.468,1.929a16.518,16.518,0,0,0,10.813-6.706c1.759-2.572,2.658-5.545,3.791-8.41l-3.655.478c-.217-.486-.127-.309-.018.036.072.231.149.461.225.692.246.747.5,1.491.78,2.227a23.117,23.117,0,0,0,2.541,5.187,16.838,16.838,0,0,0,10.856,6.5l-1.469-1.929v0l1.469-1.928c-7.088,1.32-12.975,7.489-14.592,14.474l1.928-1.468h0C341.442,46.316,341.439,50.316,344.016,50.336Z"
              /></symbol
            >
 <symbol id="icon-phone"
              viewBox="0 0 24 24"
              fill="none"
            >
              <path
                d="M16.5562 12.9062L16.1007 13.359C16.1007 13.359 15.0181 14.4355 12.0631 11.4972C9.10812 8.55901 10.1907 7.48257 10.1907 7.48257L10.4775 7.19738C11.1841 6.49484 11.2507 5.36691 10.6342 4.54348L9.37326 2.85908C8.61028 1.83992 7.13596 1.70529 6.26145 2.57483L4.69185 4.13552C4.25823 4.56668 3.96765 5.12559 4.00289 5.74561C4.09304 7.33182 4.81071 10.7447 8.81536 14.7266C13.0621 18.9492 17.0468 19.117 18.6763 18.9651C19.1917 18.9171 19.6399 18.6546 20.0011 18.2954L21.4217 16.883C22.3806 15.9295 22.1102 14.2949 20.8833 13.628L18.9728 12.5894C18.1672 12.1515 17.1858 12.2801 16.5562 12.9062Z"
                fill="#000"
              />
            </symbol>
            <symbol
                id="icon-HTML"
                viewBox="0 0 48 48"
                
              >
                <path fill="#E65100" d="M41,5H7l3,34l14,4l14-4L41,5L41,5z" />
                <path fill="#FF6D00" d="M24 8L24 39.9 35.2 36.7 37.7 8z" />
                <path
                  fill="#FFF"
                  d="M24,25v-4h8.6l-0.7,11.5L24,35.1v-4.2l4.1-1.4l0.3-4.5H24z M32.9,17l0.3-4H24v4H32.9z"
                />
                <path
                  fill="#EEE"
                  d="M24,30.9v4.2l-7.9-2.6L15.7,27h4l0.2,2.5L24,30.9z M19.1,17H24v-4h-9.1l0.7,12H24v-4h-4.6L19.1,17z"
                />
              </symbol>

        <symbol
                id="icon-CSS"
                viewBox="0 0 32 32"
                fill="none"
              >
                <path d="M6 28L4 3H28L26 28L16 31L6 28Z" fill="#1172B8" />
                <path d="M26 5H16V29.5L24 27L26 5Z" fill="#33AADD" />
                <path
                  d="M19.5 17.5H9.5L9 14L17 11.5H9L8.5 8.5H24L23.5 12L17 14.5H23L22 24L16 26L10 24L9.5 19H12.5L13 21.5L16 22.5L19 21.5L19.5 17.5Z"
                  fill="white"
                />
              </symbol>

              <symbol
                id="icon-JS"
                viewBox="0 0 48 48"
               
              >
                <path fill="#ffd600" d="M6,42V6h36v36H6z" />
                <path
                  fill="#000001"
                  d="M29.538 32.947c.692 1.124 1.444 2.201 3.037 2.201 1.338 0 2.04-.665 2.04-1.585 0-1.101-.726-1.492-2.198-2.133l-.807-.344c-2.329-.988-3.878-2.226-3.878-4.841 0-2.41 1.845-4.244 4.728-4.244 2.053 0 3.528.711 4.592 2.573l-2.514 1.607c-.553-.988-1.151-1.377-2.078-1.377-.946 0-1.545.597-1.545 1.377 0 .964.6 1.354 1.985 1.951l.807.344C36.452 29.645 38 30.839 38 33.523 38 36.415 35.716 38 32.65 38c-2.999 0-4.702-1.505-5.65-3.368L29.538 32.947zM17.952 33.029c.506.906 1.275 1.603 2.381 1.603 1.058 0 1.667-.418 1.667-2.043V22h3.333v11.101c0 3.367-1.953 4.899-4.805 4.899-2.577 0-4.437-1.746-5.195-3.368L17.952 33.029z"
                />
              </symbol>

              <symbol
                id="icon-react"
                viewBox="0 0 48 48"
               
              >
                <path
                  fill="#80deea"
                  d="M24,34C11.1,34,1,29.6,1,24c0-5.6,10.1-10,23-10c12.9,0,23,4.4,23,10C47,29.6,36.9,34,24,34z M24,16	c-12.6,0-21,4.1-21,8c0,3.9,8.4,8,21,8s21-4.1,21-8C45,20.1,36.6,16,24,16z"
                />
                <path
                  fill="#80deea"
                  d="M15.1,44.6c-1,0-1.8-0.2-2.6-0.7C7.6,41.1,8.9,30.2,15.3,19l0,0c3-5.2,6.7-9.6,10.3-12.4c3.9-3,7.4-3.9,9.8-2.5	c2.5,1.4,3.4,4.9,2.8,9.8c-0.6,4.6-2.6,10-5.6,15.2c-3,5.2-6.7,9.6-10.3,12.4C19.7,43.5,17.2,44.6,15.1,44.6z M32.9,5.4	c-1.6,0-3.7,0.9-6,2.7c-3.4,2.7-6.9,6.9-9.8,11.9l0,0c-6.3,10.9-6.9,20.3-3.6,22.2c1.7,1,4.5,0.1,7.6-2.3c3.4-2.7,6.9-6.9,9.8-11.9	c2.9-5,4.8-10.1,5.4-14.4c0.5-4-0.1-6.8-1.8-7.8C34,5.6,33.5,5.4,32.9,5.4z"
                />
                <path
                  fill="#80deea"
                  d="M33,44.6c-5,0-12.2-6.1-17.6-15.6C8.9,17.8,7.6,6.9,12.5,4.1l0,0C17.4,1.3,26.2,7.8,32.7,19	c3,5.2,5,10.6,5.6,15.2c0.7,4.9-0.3,8.3-2.8,9.8C34.7,44.4,33.9,44.6,33,44.6z M13.5,5.8c-3.3,1.9-2.7,11.3,3.6,22.2	c6.3,10.9,14.1,16.1,17.4,14.2c1.7-1,2.3-3.8,1.8-7.8c-0.6-4.3-2.5-9.4-5.4-14.4C24.6,9.1,16.8,3.9,13.5,5.8L13.5,5.8z"
                />
                <circle cx="24" cy="24" r="4" fill="#80deea" />
</symbol>
<symbol
                viewBox="0 0 48 48"
                id="icon-c++"
                clip-rule="evenodd"
              >
                <linearGradient
                  id="Ey3AfYdg0JtJGx7I73Eu7a"
                  x1="5"
                  x2="43"
                  y1="24"
                  y2="24"
                  gradientUnits="userSpaceOnUse"
                >
                  <stop offset=".002" stop-color="#427fdb" />
                  <stop offset=".397" stop-color="#2668cb" />
                  <stop offset=".763" stop-color="#1358bf" />
                  <stop offset="1" stop-color="#0c52bb" />
                </linearGradient>
                <path
                  fill="url(#Ey3AfYdg0JtJGx7I73Eu7a)"
                  fill-rule="evenodd"
                  d="M22.903,3.286c0.679-0.381,1.515-0.381,2.193,0	c3.355,1.883,13.451,7.551,16.807,9.434C42.582,13.1,43,13.804,43,14.566c0,3.766,0,15.101,0,18.867	c0,0.762-0.418,1.466-1.097,1.847c-3.355,1.883-13.451,7.551-16.807,9.434c-0.679,0.381-1.515,0.381-2.193,0	c-3.355-1.883-13.451-7.551-16.807-9.434C5.418,34.899,5,34.196,5,33.434c0-3.766,0-15.101,0-18.867	c0-0.762,0.418-1.466,1.097-1.847C9.451,10.837,19.549,5.169,22.903,3.286z"
                  clip-rule="evenodd"
                />
                <linearGradient
                  id="Ey3AfYdg0JtJGx7I73Eu7b"
                  x1="5"
                  x2="42.487"
                  y1="18.702"
                  y2="18.702"
                  gradientUnits="userSpaceOnUse"
                >
                  <stop offset="0" stop-color="#32bdef" />
                  <stop offset="1" stop-color="#1ea2e4" />
                </linearGradient>
                <path
                  fill="url(#Ey3AfYdg0JtJGx7I73Eu7b)"
                  fill-rule="evenodd"
                  d="M5.304,34.404C5.038,34.048,5,33.71,5,33.255c0-3.744,0-15.014,0-18.759c0-0.758,0.417-1.458,1.094-1.836	c3.343-1.872,13.405-7.507,16.748-9.38c0.677-0.379,1.594-0.371,2.271,0.008c3.343,1.872,13.371,7.459,16.714,9.331	c0.27,0.152,0.476,0.335,0.66,0.576L5.304,34.404z"
                  clip-rule="evenodd"
                />
                <path
                  fill="#fff"
                  fill-rule="evenodd"
                  d="M24,10c7.727,0,14,6.273,14,14s-6.273,14-14,14s-14-6.273-14-14	S16.273,10,24,10z M24,17c3.863,0,7,3.136,7,7c0,3.863-3.137,7-7,7s-7-3.137-7-7C17,20.136,20.136,17,24,17z"
                  clip-rule="evenodd"
                />
                <linearGradient
                  id="Ey3AfYdg0JtJGx7I73Eu7c"
                  x1="23.593"
                  x2="43"
                  y1="23.852"
                  y2="23.852"
                  gradientUnits="userSpaceOnUse"
                >
                  <stop offset="0" stop-color="#2aa4f4" />
                  <stop offset="1" stop-color="#007ad9" />
                </linearGradient>
                <path
                  fill="url(#Ey3AfYdg0JtJGx7I73Eu7c)"
                  fill-rule="evenodd"
                  d="M42.485,13.205c0.516,0.483,0.506,1.211,0.506,1.784c0,3.795-0.032,14.589,0.009,18.384c0.004,0.396-0.127,0.813-0.323,1.127	L23.593,24L42.485,13.205z"
                  clip-rule="evenodd"
                />
                <g opacity=".05">
                  <path
                    d="M33,21v2h2v2h-2v2h-2v-2h-2v-2h2v-2H33 M34,20h-1h-2h-1v1v1h-1h-1v1v2v1h1h1v1v1h1h2h1v-1v-1h1h1v-1v-2v-1h-1h-1v-1V20 L34,20z"
                  />
                  <path
                    d="M40,21v2h2v2h-2v2h-2v-2h-2v-2h2v-2H40 M41,20h-1h-2h-1v1v1h-1h-1v1v2v1h1h1v1v1h1h2h1v-1v-1h1h1v-1v-2v-1h-1h-1v-1V20 L41,20z"
                  />
                </g>
                <g opacity=".07">
                  <path
                    d="M33,21v2h2v2h-2v2h-2v-2h-2v-2h2v-2H33 M33.5,20.5H33h-2h-0.5V21v1.5H29h-0.5V23v2v0.5H29h1.5V27v0.5H31h2h0.5V27v-1.5H35 h0.5V25v-2v-0.5H35h-1.5V21V20.5L33.5,20.5z"
                  />
                  <path
                    d="M40,21v2h2v2h-2v2h-2v-2h-2v-2h2v-2H40 M40.5,20.5H40h-2h-0.5V21v1.5H36h-0.5V23v2v0.5H36h1.5V27v0.5H38h2h0.5V27v-1.5H42 h0.5V25v-2v-0.5H42h-1.5V21V20.5L40.5,20.5z"
                  />
                </g>
                <polygon
                  fill="#fff"
                  points="33,21 31,21 31,23 29,23 29,25 31,25 31,27 33,27 33,25 35,25 35,23 33,23"
                />
                <polygon
                  fill="#fff"
                  points="42,23 40,23 40,21 38,21 38,23 36,23 36,25 38,25 38,27 40,27 40,25 42,25"
                />
                <g>
                  <path
                    d="M24,10c5.128,0,9.602,2.771,12.041,6.887l-6.073,3.47C28.737,18.347,26.527,17,24,17c-3.864,0-7,3.136-7,7 c0,3.863,3.137,7,7,7c2.57,0,4.812-1.392,6.029-3.459l6.132,3.374C33.75,35.142,29.21,38,24,38c-7.727,0-14-6.273-14-14 S16.273,10,24,10 M24,9C15.729,9,9,15.729,9,24s6.729,15,15,15c5.367,0,10.36-2.908,13.03-7.59l0.503-0.882l-0.89-0.49 l-6.132-3.374l-0.851-0.468l-0.493,0.837C28.09,28.863,26.11,30,24,30c-3.308,0-6-2.692-6-6s2.692-6,6-6 c2.099,0,4.011,1.076,5.115,2.879l0.507,0.828l0.842-0.481l6.073-3.47l0.882-0.504l-0.518-0.874C34.205,11.827,29.262,9,24,9L24,9 z"
                    opacity=".05"
                  />
                  <path
                    d="M24,10c5.128,0,9.602,2.771,12.041,6.887l-6.073,3.47C28.737,18.347,26.527,17,24,17c-3.864,0-7,3.136-7,7 c0,3.863,3.137,7,7,7c2.57,0,4.812-1.392,6.029-3.459l6.132,3.374C33.75,35.142,29.21,38,24,38c-7.727,0-14-6.273-14-14 S16.273,10,24,10 M24,9.5C16.005,9.5,9.5,16.005,9.5,24S16.005,38.5,24,38.5c5.188,0,10.014-2.812,12.595-7.337l0.252-0.441 l-0.445-0.245l-6.132-3.374l-0.425-0.234l-0.246,0.418C28.431,29.269,26.286,30.5,24,30.5c-3.584,0-6.5-2.916-6.5-6.5 s2.916-6.5,6.5-6.5c2.275,0,4.346,1.166,5.542,3.118l0.253,0.414l0.421-0.241l6.073-3.47l0.441-0.252l-0.259-0.437 C33.864,12.233,29.086,9.5,24,9.5L24,9.5z"
                    opacity=".07"
                  />
                </g>
</symbol>        
<symbol
               id="icon-DB"
                viewBox="-7.91 0 65.937 65.937"
                xmlns:dc="http://purl.org/dc/elements/1.1/"
                xmlns:cc="http://creativecommons.org/ns#"
                xmlns:rdf="http://www.w3.org/1999/02/22-rdf-syntax-ns#"
                xmlns="http://www.w3.org/2000/svg"
              >
                <metadata>
                  <rdf:RDF>
                    <cc:Work>
                      <dc:subject> Storage </dc:subject>
                      <dc:identifier> sql-azure </dc:identifier>
                      <dc:title> SQL Azure </dc:title>
                      <dc:format> image/svg+xml </dc:format>
                      <dc:publisher> Amido Limited </dc:publisher>
                      <dc:creator> Richard Slater </dc:creator>
                      <dc:type
                        rdf:resource="http://purl.org/dc/dcmitype/StillImage"
                      />
                    </cc:Work>
                  </rdf:RDF>
                </metadata>
                <path
                  d="m 375.03112,499.3939 c -13.55041,0 -24.53541,3.5345 -24.9608,7.94492 l -0.0625,0 0,49.35859 c -0.0216,0.13993 -0.0625,0.29626 -0.0625,0.43791 0,0.0885 0.0541,0.16255 0.0625,0.25023 0.42539,4.41042 11.41039,7.94492 24.9608,7.94492 13.55042,0 24.53542,-3.5345 24.96082,-7.94492 l 0.12512,0 0,-50.04673 -0.0625,0 c -0.4254,-4.41042 -11.41041,-7.94492 -24.96082,-7.94492 z m 0.3128,3.81606 c 10.50445,0 19.01776,2.30722 19.01776,5.12979 0,2.82258 -8.51331,5.12979 -19.01776,5.12979 -10.50445,0 -19.01776,-2.30721 -19.01776,-5.12979 0,-2.82257 8.51331,-5.12979 19.01776,-5.12979 z m -17.14101,26.08686 6.88143,0 c 1.56003,2e-5 2.74474,0.0779 3.56583,0.25024 1.14949,0.23792 2.12826,0.69028 2.94024,1.31372 1.05827,0.80396 1.85263,1.81434 2.37722,3.06537 0.52457,1.25104 0.81324,2.70865 0.81326,4.31653 -2e-5,1.37 -0.20723,2.57014 -0.56303,3.62839 -0.35581,1.05824 -0.81978,1.93426 -1.37628,2.62745 -0.55652,0.69321 -1.15278,1.22865 -1.81419,1.62652 -0.66144,0.39787 -1.44211,0.73328 -2.37722,0.93837 -0.93514,0.2051 -2.03969,0.3128 -3.25304,0.3128 l -7.19422,0 0,-18.07939 z m 20.14381,0 7.50701,0 c 1.53267,2e-5 2.76494,0.19799 3.69095,0.56303 0.92598,0.36508 1.66495,0.93027 2.18954,1.68908 0.52457,0.75885 0.75068,1.54868 0.7507,2.37722 -2e-5,0.77114 -0.22289,1.50867 -0.68814,2.18954 -0.46529,0.6809 -1.18733,1.20815 -2.12699,1.62652 1.21336,0.31994 2.16282,0.8554 2.81513,1.62652 0.65229,0.77114 1.00092,1.70253 1.00094,2.75257 -2e-5,0.84497 -0.22876,1.65122 -0.62559,2.37722 -0.39687,0.72602 -0.85498,1.29531 -1.43884,1.68908 -0.58389,0.39376 -1.30918,0.67483 -2.18954,0.87581 -0.88039,0.20099 -1.97581,0.3128 -3.25304,0.3128 l -7.63213,0 0,-18.07939 z m -17.51636,2.12699 0,13.82541 4.25398,0 c 1.32283,0 2.37525,-0.15394 3.12792,-0.37535 0.75264,-0.22149 1.36715,-0.5364 1.81419,-0.93838 0.62949,-0.56602 1.15015,-1.29639 1.5014,-2.2521 0.35123,-0.95569 0.50045,-2.14148 0.50047,-3.50327 -2e-5,-1.8868 -0.37471,-3.30339 -1.06349,-4.31653 -0.68881,-1.01313 -1.51706,-1.71987 -2.50234,-2.06443 -0.7116,-0.24609 -1.86242,-0.37533 -3.44071,-0.37535 l -4.19142,0 z m 20.14381,0 0,5.44258 4.31653,0 c 1.17688,2e-5 2.054,-0.0482 2.5649,-0.18757 0.67509,-0.18037 1.15928,-0.45743 1.5014,-0.87582 0.3421,-0.41837 0.50045,-0.93227 0.50047,-1.56396 -2e-5,-0.59884 -0.11871,-1.17121 -0.43791,-1.62652 -0.31932,-0.45529 -0.78329,-0.77018 -1.37628,-0.93838 -0.59302,-0.16815 -1.62392,-0.25021 -3.06537,-0.25023 l -4.00374,0 z m 0,7.56957 0,6.25584 5.00468,0 c 0.85756,0 1.46751,-0.0677 1.81419,-0.12512 0.61123,-0.0985 1.09086,-0.27077 1.5014,-0.50046 0.41053,-0.2297 0.73635,-0.56205 1.00094,-1.00094 0.26455,-0.43889 0.43789,-0.92714 0.43791,-1.5014 -2e-5,-0.67269 -0.17997,-1.25531 -0.56303,-1.75164 -0.38318,-0.4963 -0.94686,-0.8625 -1.62652,-1.06349 -0.67967,-0.20097 -1.66301,-0.31279 -2.94024,-0.31279 l -4.62933,0 z"
                  fill="#00bcf2"
                  transform="translate(-349.945 -499.394)"
                />
</symbol>
<symbol
                xmlns="http://www.w3.org/2000/svg"
                viewBox="0 0 48 48"
                id="icon-phone-colored"
              >
                <path
                  fill="#0f0"
                  d="M13,42h22c3.866,0,7-3.134,7-7V13c0-3.866-3.134-7-7-7H13c-3.866,0-7,3.134-7,7v22	C6,38.866,9.134,42,13,42z"
                />
                <path
                  fill="#fff"
                  d="M35.45,31.041l-4.612-3.051c-0.563-0.341-1.267-0.347-1.836-0.017c0,0,0,0-1.978,1.153	c-0.265,0.154-0.52,0.183-0.726,0.145c-0.262-0.048-0.442-0.191-0.454-0.201c-1.087-0.797-2.357-1.852-3.711-3.205	c-1.353-1.353-2.408-2.623-3.205-3.711c-0.009-0.013-0.153-0.193-0.201-0.454c-0.037-0.206-0.009-0.46,0.145-0.726	c1.153-1.978,1.153-1.978,1.153-1.978c0.331-0.569,0.324-1.274-0.017-1.836l-3.051-4.612c-0.378-0.571-1.151-0.722-1.714-0.332	c0,0-1.445,0.989-1.922,1.325c-0.764,0.538-1.01,1.356-1.011,2.496c-0.002,1.604,1.38,6.629,7.201,12.45l0,0l0,0l0,0l0,0	c5.822,5.822,10.846,7.203,12.45,7.201c1.14-0.001,1.958-0.248,2.496-1.011c0.336-0.477,1.325-1.922,1.325-1.922	C36.172,32.192,36.022,31.419,35.45,31.041z"
                />
</symbol>

<symbol
                xmlns="http://www.w3.org/2000/svg"
                xmlns:xlink="http://www.w3.org/1999/xlink"
                viewBox="0,0,256,256"
                id="icon-telegram"
              >
                <g
                  fill="#29b6f6"
                  fill-rule="nonzero"
                  stroke="none"
                  stroke-width="1"
                  stroke-linecap="butt"
                  stroke-linejoin="miter"
                  stroke-miterlimit="10"
                  stroke-dasharray=""
                  stroke-dashoffset="0"
                  font-family="none"
                  font-weight="none"
                  font-size="none"
                  text-anchor="none"
                  style="mix-blend-mode: normal"
                >
                  <path
                    d="M52.2752,239.36c-19.68078,0 -35.6352,-15.95442 -35.6352,-35.6352v-151.4496c0,-19.68078 15.95442,-35.6352 35.6352,-35.6352h151.4496c19.68078,0 35.6352,15.95442 35.6352,35.6352v151.4496c0,19.68078 -15.95442,35.6352 -35.6352,35.6352z"
                    id="shape"
                  ></path>
                </g>
                <g
                  fill="none"
                  fill-rule="nonzero"
                  stroke="none"
                  stroke-width="1"
                  stroke-linecap="butt"
                  stroke-linejoin="miter"
                  stroke-miterlimit="10"
                  stroke-dasharray=""
                  stroke-dashoffset="0"
                  font-family="none"
                  font-weight="none"
                  font-size="none"
                  text-anchor="none"
                  style="mix-blend-mode: normal"
                >
                  <g transform="scale(5.33333,5.33333)">
                    <path
                      d="M24,4c-11.04569,0 -20,8.95431 -20,20c0,11.04569 8.95431,20 20,20c11.04569,0 20,-8.95431 20,-20c0,-11.04569 -8.95431,-20 -20,-20z"
                      fill="#29b6f6"
                    ></path>
                    <path
                      d="M33.95,15l-3.746,19.126c0,0 -0.161,0.874 -1.245,0.874c-0.576,0 -0.873,-0.274 -0.873,-0.274l-8.114,-6.733l-3.97,-2.001l-5.095,-1.355c0,0 -0.907,-0.262 -0.907,-1.012c0,-0.625 0.933,-0.923 0.933,-0.923l21.316,-8.468c-0.001,-0.001 0.651,-0.235 1.126,-0.234c0.292,0 0.625,0.125 0.625,0.5c0,0.25 -0.05,0.5 -0.05,0.5z"
                      fill="#ffffff"
                    ></path>
                    <path
                      d="M23,30.505l-3.426,3.374c0,0 -0.149,0.115 -0.348,0.12c-0.069,0.002 -0.143,-0.009 -0.219,-0.043l0.964,-5.965z"
                      fill="#b0bec5"
                    ></path>
                    <path
                      d="M29.897,18.196c-0.169,-0.22 -0.481,-0.26 -0.701,-0.093l-13.196,7.897c0,0 2.106,5.892 2.427,6.912c0.322,1.021 0.58,1.045 0.58,1.045l0.964,-5.965l9.832,-9.096c0.22,-0.167 0.261,-0.48 0.094,-0.7z"
                      fill="#cfd8dc"
                    ></path>
                  </g>
                </g>
</symbol>
<symbol
                xmlns="http://www.w3.org/2000/svg"
                viewBox="0 0 48 48"
             id="icon-facebook"
              >
                <path
                  fill="#3F51B5"
                  d="M42,37c0,2.762-2.238,5-5,5H11c-2.761,0-5-2.238-5-5V11c0-2.762,2.239-5,5-5h26c2.762,0,5,2.238,5,5V37z"
                />
                <path
                  fill="#FFF"
                  d="M34.368,25H31v13h-5V25h-3v-4h3v-2.41c0.002-3.508,1.459-5.59,5.592-5.59H35v4h-2.287C31.104,17,31,17.6,31,18.723V21h4L34.368,25z"
                />
</symbol>

<symbol
                xmlns="http://www.w3.org/2000/svg"
                viewBox="0 0 48 48"
              id="icon-instagram"
              >
                <path
                  fill="#304ffe"
                  d="M41.67,13.48c-0.4,0.26-0.97,0.5-1.21,0.77c-0.09,0.09-0.14,0.19-0.12,0.29v1.03l-0.3,1.01l-0.3,1l-0.33,1.1 l-0.68,2.25l-0.66,2.22l-0.5,1.67c0,0.26-0.01,0.52-0.03,0.77c-0.07,0.96-0.27,1.88-0.59,2.74c-0.19,0.53-0.42,1.04-0.7,1.52 c-0.1,0.19-0.22,0.38-0.34,0.56c-0.4,0.63-0.88,1.21-1.41,1.72c-0.41,0.41-0.86,0.79-1.35,1.11c0,0,0,0-0.01,0 c-0.08,0.07-0.17,0.13-0.27,0.18c-0.31,0.21-0.64,0.39-0.98,0.55c-0.23,0.12-0.46,0.22-0.7,0.31c-0.05,0.03-0.11,0.05-0.16,0.07 c-0.57,0.27-1.23,0.45-1.89,0.54c-0.04,0.01-0.07,0.01-0.11,0.02c-0.4,0.07-0.79,0.13-1.19,0.16c-0.18,0.02-0.37,0.03-0.55,0.03 l-0.71-0.04l-3.42-0.18c0-0.01-0.01,0-0.01,0l-1.72-0.09c-0.13,0-0.27,0-0.4-0.01c-0.54-0.02-1.06-0.08-1.58-0.19 c-0.01,0-0.01,0-0.01,0c-0.95-0.18-1.86-0.5-2.71-0.93c-0.47-0.24-0.93-0.51-1.36-0.82c-0.18-0.13-0.35-0.27-0.52-0.42 c-0.48-0.4-0.91-0.83-1.31-1.27c-0.06-0.06-0.11-0.12-0.16-0.18c-0.06-0.06-0.12-0.13-0.17-0.19c-0.38-0.48-0.7-0.97-0.96-1.49 c-0.24-0.46-0.43-0.95-0.58-1.49c-0.06-0.19-0.11-0.37-0.15-0.57c-0.01-0.01-0.02-0.03-0.02-0.05c-0.1-0.41-0.19-0.84-0.24-1.27 c-0.06-0.33-0.09-0.66-0.09-1c-0.02-0.13-0.02-0.27-0.02-0.4l1.91-2.95l1.87-2.88l0.85-1.31l0.77-1.18l0.26-0.41v-1.03 c0.02-0.23,0.03-0.47,0.02-0.69c-0.01-0.7-0.15-1.38-0.38-2.03c-0.22-0.69-0.53-1.34-0.85-1.94c-0.38-0.69-0.78-1.31-1.11-1.87 C14,7.4,13.66,6.73,13.75,6.26C14.47,6.09,15.23,6,16,6h16c4.18,0,7.78,2.6,9.27,6.26C41.43,12.65,41.57,13.06,41.67,13.48z"
                />
                <path
                  fill="#4928f4"
                  d="M42,16v0.27l-1.38,0.8l-0.88,0.51l-0.97,0.56l-1.94,1.13l-1.9,1.1l-1.94,1.12l-0.77,0.45 c0,0.48-0.12,0.92-0.34,1.32c-0.31,0.58-0.83,1.06-1.49,1.47c-0.67,0.41-1.49,0.74-2.41,0.98c0,0,0-0.01-0.01,0 c-3.56,0.92-8.42,0.5-10.78-1.26c-0.66-0.49-1.12-1.09-1.32-1.78c-0.06-0.23-0.09-0.48-0.09-0.73v-7.19 c0.01-0.15-0.09-0.3-0.27-0.45c-0.54-0.43-1.81-0.84-3.23-1.25c-1.11-0.31-2.3-0.62-3.3-0.92c-0.79-0.24-1.46-0.48-1.86-0.71 c0.18-0.35,0.39-0.7,0.61-1.03c1.4-2.05,3.54-3.56,6.02-4.13C14.47,6.09,15.23,6,16,6h10.8c5.37,0.94,10.32,3.13,14.47,6.26 c0.16,0.39,0.3,0.8,0.4,1.22c0.18,0.66,0.29,1.34,0.32,2.05C42,15.68,42,15.84,42,16z"
                />
                <path
                  fill="#6200ea"
                  d="M42,16v4.41l-0.22,0.68l-0.75,2.33l-0.78,2.4l-0.41,1.28l-0.38,1.19l-0.37,1.13l-0.36,1.12l-0.19,0.59 l-0.25,0.78c0,0.76-0.02,1.43-0.07,2c-0.01,0.06-0.02,0.12-0.02,0.18c-0.06,0.53-0.14,0.98-0.27,1.36 c-0.01,0.06-0.03,0.12-0.05,0.17c-0.26,0.72-0.65,1.18-1.23,1.48c-0.14,0.08-0.3,0.14-0.47,0.2c-0.53,0.18-1.2,0.27-2.02,0.32 c-0.6,0.04-1.29,0.05-2.07,0.05H31.4l-1.19-0.05L30,37.61l-2.17-0.09l-2.2-0.09l-7.25-0.3l-1.88-0.08h-0.26 c-0.78-0.01-1.45-0.06-2.03-0.14c-0.84-0.13-1.49-0.35-1.98-0.68c-0.7-0.45-1.11-1.11-1.35-2.03c-0.06-0.22-0.11-0.45-0.14-0.7 c-0.1-0.58-0.15-1.25-0.18-2c0-0.15,0-0.3-0.01-0.46c-0.01-0.01,0-0.01,0-0.01v-0.58c-0.01-0.29-0.01-0.59-0.01-0.9l0.05-1.61 l0.03-1.15l0.04-1.34v-0.19l0.07-2.46l0.07-2.46l0.07-2.31l0.06-2.27l0.02-0.6c0-0.31-1.05-0.49-2.22-0.64 c-0.93-0.12-1.95-0.23-2.56-0.37c0.05-0.23,0.1-0.46,0.16-0.68c0.18-0.72,0.45-1.4,0.79-2.05c0.18-0.35,0.39-0.7,0.61-1.03 c2.16-0.95,4.41-1.69,6.76-2.17c2.06-0.43,4.21-0.66,6.43-0.66c7.36,0,14.16,2.49,19.54,6.69c0.52,0.4,1.03,0.83,1.53,1.28 C42,15.68,42,15.84,42,16z"
                />
                <path
                  fill="#673ab7"
                  d="M42,18.37v4.54l-0.55,1.06l-1.05,2.05l-0.56,1.08l-0.51,0.99l-0.22,0.43c0,0.31,0,0.61-0.02,0.9 c0,0.43-0.02,0.84-0.05,1.22c-0.04,0.45-0.1,0.86-0.16,1.24c-0.15,0.79-0.36,1.47-0.66,2.03c-0.04,0.07-0.08,0.14-0.12,0.2 c-0.11,0.18-0.24,0.35-0.38,0.51c-0.18,0.22-0.38,0.41-0.61,0.57c-0.34,0.26-0.74,0.47-1.2,0.63c-0.57,0.21-1.23,0.35-2.01,0.43 c-0.51,0.05-1.07,0.08-1.68,0.08l-0.42,0.02l-2.08,0.12h-0.01L27.5,36.6l-2.25,0.13l-3.1,0.18l-3.77,0.22l-0.55,0.03 c-0.51,0-0.99-0.03-1.45-0.09c-0.05-0.01-0.09-0.02-0.14-0.02c-0.68-0.11-1.3-0.29-1.86-0.54c-0.68-0.3-1.27-0.7-1.77-1.18 c-0.44-0.43-0.82-0.92-1.13-1.47c-0.07-0.13-0.14-0.25-0.2-0.39c-0.3-0.59-0.54-1.25-0.72-1.97c-0.03-0.12-0.06-0.25-0.08-0.38 c-0.06-0.23-0.11-0.47-0.14-0.72c-0.11-0.64-0.17-1.32-0.2-2.03v-0.01c-0.01-0.29-0.02-0.57-0.02-0.87l-0.49-1.17l-0.07-0.18 L9.5,25.99L8.75,24.2l-0.12-0.29l-0.72-1.73l-0.8-1.93c0,0,0,0-0.01,0L6.29,18.3L6,17.59V16c0-0.63,0.06-1.25,0.17-1.85 c0.05-0.23,0.1-0.46,0.16-0.68c0.85-0.49,1.74-0.94,2.65-1.34c2.08-0.93,4.31-1.62,6.62-2.04c1.72-0.31,3.51-0.48,5.32-0.48 c7.31,0,13.94,2.65,19.12,6.97c0.2,0.16,0.39,0.32,0.58,0.49C41.09,17.48,41.55,17.91,42,18.37z"
                />
                <path
                  fill="#8e24aa"
                  d="M42,21.35v5.14l-0.57,1.19l-1.08,2.25l-0.01,0.03c0,0.43-0.02,0.82-0.05,1.17c-0.1,1.15-0.38,1.88-0.84,2.33 c-0.33,0.34-0.74,0.53-1.25,0.63c-0.03,0.01-0.07,0.01-0.1,0.02c-0.16,0.03-0.33,0.05-0.51,0.05c-0.62,0.06-1.35,0.02-2.19-0.04 c-0.09,0-0.19-0.01-0.29-0.02c-0.61-0.04-1.26-0.08-1.98-0.11c-0.39-0.01-0.8-0.02-1.22-0.02h-0.02l-1.01,0.08h-0.01l-2.27,0.16 l-2.59,0.2l-0.38,0.03l-3.03,0.22l-1.57,0.12l-1.55,0.11c-0.27,0-0.53,0-0.79-0.01c0,0-0.01-0.01-0.01,0 c-1.13-0.02-2.14-0.09-3.04-0.26c-0.83-0.14-1.56-0.36-2.18-0.69c-0.64-0.31-1.17-0.75-1.6-1.31c-0.41-0.55-0.71-1.24-0.9-2.07 c0-0.01,0-0.01,0-0.01c-0.14-0.67-0.22-1.45-0.22-2.33l-0.15-0.27L9.7,26.35l-0.13-0.22L9.5,25.99l-0.93-1.65l-0.46-0.83 l-0.58-1.03l-1-1.79L6,19.75v-3.68c0.88-0.58,1.79-1.09,2.73-1.55c1.14-0.58,2.32-1.07,3.55-1.47c1.34-0.44,2.74-0.79,4.17-1.02 c1.45-0.24,2.94-0.36,4.47-0.36c6.8,0,13.04,2.43,17.85,6.47c0.22,0.17,0.43,0.36,0.64,0.54c0.84,0.75,1.64,1.56,2.37,2.41 C41.86,21.18,41.94,21.26,42,21.35z"
                />
                <path
                  fill="#c2185b"
                  d="M42,24.71v7.23c-0.24-0.14-0.57-0.31-0.98-0.49c-0.22-0.11-0.47-0.22-0.73-0.32 c-0.38-0.17-0.79-0.33-1.25-0.49c-0.1-0.04-0.2-0.07-0.31-0.1c-0.18-0.07-0.37-0.13-0.56-0.19c-0.59-0.18-1.24-0.35-1.92-0.5 c-0.26-0.05-0.53-0.1-0.8-0.14c-0.87-0.15-1.8-0.24-2.77-0.25c-0.08-0.01-0.17-0.01-0.25-0.01l-2.57,0.02l-3.5,0.02h-0.01 l-7.49,0.06c-2.38,0-3.84,0.57-4.72,0.8c0,0-0.01,0-0.01,0.01c-0.93,0.24-1.22,0.09-1.3-1.54c-0.02-0.45-0.03-1.03-0.03-1.74 l-0.56-0.43l-0.98-0.74l-0.6-0.46l-0.12-0.09L8.88,24.1l-0.25-0.19l-0.52-0.4l-0.96-0.72L6,21.91v-3.4 c0.1-0.08,0.19-0.15,0.29-0.21c1.45-1,3-1.85,4.64-2.54c1.46-0.62,3-1.11,4.58-1.46c0.43-0.09,0.87-0.18,1.32-0.24 c1.33-0.23,2.7-0.34,4.09-0.34c6.01,0,11.53,2.09,15.91,5.55c0.66,0.52,1.3,1.07,1.9,1.66c0.82,0.78,1.59,1.61,2.3,2.49 c0.14,0.18,0.28,0.36,0.42,0.55C41.64,24.21,41.82,24.46,42,24.71z"
                />
                <path
                  fill="#d81b60"
                  d="M42,28.72V32c0,0.65-0.06,1.29-0.18,1.91c-0.18,0.92-0.49,1.8-0.91,2.62c-0.22,0.05-0.47,0.05-0.75,0.01 c-0.63-0.11-1.37-0.44-2.17-0.87c-0.04-0.01-0.08-0.03-0.11-0.05c-0.25-0.13-0.51-0.27-0.77-0.43c-0.53-0.29-1.09-0.61-1.65-0.91 c-0.12-0.06-0.24-0.12-0.35-0.18c-0.64-0.33-1.3-0.63-1.96-0.86c0,0,0,0-0.01,0c-0.14-0.05-0.29-0.1-0.44-0.14 c-0.57-0.16-1.15-0.26-1.71-0.26l-1.1-0.32l-4.87-1.41c0,0,0,0-0.01,0l-2.99-0.87h-0.01l-1.3-0.38c-3.76,0-6.07,1.6-7.19,0.99 c-0.44-0.23-0.7-0.81-0.79-1.95c-0.03-0.32-0.04-0.68-0.04-1.1l-1.17-0.57l-0.05-0.02h-0.01l-0.84-0.42L9.7,26.35l-0.07-0.03 l-0.17-0.09L7.5,25.28L6,24.55v-3.43c0.17-0.15,0.35-0.29,0.53-0.43c0.19-0.15,0.38-0.29,0.57-0.44c0.01,0,0.01,0,0.01,0 c1.18-0.85,2.43-1.6,3.76-2.22c1.55-0.74,3.2-1.31,4.91-1.68c0.25-0.06,0.51-0.12,0.77-0.16c1.42-0.27,2.88-0.41,4.37-0.41 c5.27,0,10.11,1.71,14.01,4.59c1.13,0.84,2.18,1.77,3.14,2.78c0.79,0.83,1.52,1.73,2.18,2.67c0.05,0.07,0.1,0.14,0.15,0.2 c0.37,0.54,0.71,1.09,1.03,1.66C41.64,28.02,41.82,28.37,42,28.72z"
                />
                <path
                  fill="#f50057"
                  d="M41.82,33.91c-0.18,0.92-0.49,1.8-0.91,2.62c-0.19,0.37-0.4,0.72-0.63,1.06c-0.14,0.21-0.29,0.41-0.44,0.6 c-0.36-0.14-0.89-0.34-1.54-0.56c0,0,0,0,0-0.01c-0.49-0.17-1.05-0.35-1.65-0.52c-0.17-0.05-0.34-0.1-0.52-0.15 c-0.71-0.19-1.45-0.36-2.17-0.46c-0.6-0.1-1.19-0.16-1.74-0.16l-0.46-0.13h-0.01l-2.42-0.7l-1.49-0.43l-1.66-0.48h-0.01l-0.54-0.15 l-6.53-1.88l-1.88-0.54l-1.4-0.33l-2.28-0.54l-0.28-0.07c0,0,0,0-0.01,0l-2.29-0.53c0-0.01,0-0.01,0-0.01l-0.41-0.09l-0.21-0.05 l-1.67-0.39l-0.19-0.05l-1.42-1.17L6,27.9v-4.08c0.37-0.36,0.75-0.7,1.15-1.03c0.12-0.11,0.25-0.21,0.38-0.31 c0.12-0.1,0.25-0.2,0.38-0.3c0.91-0.69,1.87-1.31,2.89-1.84c1.3-0.7,2.68-1.26,4.13-1.66c0.28-0.09,0.56-0.17,0.85-0.23 c1.64-0.41,3.36-0.62,5.14-0.62c4.47,0,8.63,1.35,12.07,3.66c1.71,1.15,3.25,2.53,4.55,4.1c0.66,0.79,1.26,1.62,1.79,2.5 c0.05,0.07,0.09,0.13,0.13,0.2c0.32,0.53,0.62,1.08,0.89,1.64c0.25,0.5,0.47,1,0.67,1.52C41.34,32.25,41.6,33.07,41.82,33.91z"
                />
                <path
                  fill="#ff1744"
                  d="M40.28,37.59c-0.14,0.21-0.29,0.41-0.44,0.6c-0.44,0.55-0.92,1.05-1.46,1.49c-0.47,0.39-0.97,0.74-1.5,1.04 c-0.2-0.05-0.4-0.11-0.61-0.19c-0.66-0.23-1.35-0.61-1.99-1.01c-0.96-0.61-1.79-1.27-2.16-1.57c-0.14-0.12-0.21-0.18-0.21-0.18 l-1.7-0.15L30,37.6l-2.2-0.19l-2.28-0.2l-3.37-0.3l-5.34-0.47l-0.02-0.01l-1.88-0.91l-1.9-0.92l-1.53-0.74l-0.33-0.16l-0.41-0.2 l-1.42-0.69L7.43,31.9l-0.59-0.29L6,31.35v-4.47c0.47-0.56,0.97-1.09,1.5-1.6c0.34-0.32,0.7-0.64,1.07-0.94 c0.06-0.05,0.12-0.1,0.18-0.14c0.04-0.05,0.09-0.08,0.13-0.1c0.59-0.48,1.21-0.91,1.85-1.3c0.74-0.47,1.52-0.89,2.33-1.24 c0.87-0.39,1.78-0.72,2.72-0.97c1.63-0.46,3.36-0.7,5.14-0.7c4.08,0,7.85,1.24,10.96,3.37c1.99,1.36,3.71,3.08,5.07,5.07 c0.45,0.64,0.85,1.32,1.22,2.02c0.13,0.26,0.26,0.52,0.37,0.78c0.12,0.25,0.23,0.5,0.34,0.75c0.21,0.52,0.4,1.04,0.57,1.58 c0.32,1,0.56,2.02,0.71,3.08C40.21,36.89,40.25,37.24,40.28,37.59z"
                />
                <path
                  fill="#ff5722"
                  d="M38.39,39.42c0,0.08,0,0.17-0.01,0.26c-0.47,0.39-0.97,0.74-1.5,1.04c-0.22,0.12-0.44,0.24-0.67,0.34 c-0.23,0.11-0.46,0.21-0.7,0.3c-0.34-0.18-0.8-0.4-1.29-0.61c-0.69-0.31-1.44-0.59-2.02-0.68c-0.14-0.03-0.27-0.04-0.39-0.04 l-1.64-0.21h-0.02l-2.04-0.27l-2.06-0.27l-0.96-0.12l-7.56-0.98c-0.49,0-1.01-0.03-1.55-0.1c-0.66-0.06-1.35-0.16-2.04-0.3 c-0.68-0.12-1.37-0.28-2.03-0.45c-0.69-0.16-1.37-0.35-2-0.53c-0.73-0.22-1.41-0.43-1.98-0.62c-0.47-0.15-0.87-0.29-1.18-0.4 c-0.18-0.43-0.33-0.88-0.44-1.34C6.1,33.66,6,32.84,6,32v-1.67c0.32-0.53,0.67-1.05,1.06-1.54c0.71-0.94,1.52-1.8,2.4-2.56 c0.03-0.04,0.07-0.07,0.1-0.09l0.01-0.01c0.31-0.28,0.63-0.53,0.97-0.77c0.04-0.04,0.08-0.07,0.12-0.1 c0.16-0.12,0.33-0.24,0.51-0.35c1.43-0.97,3.01-1.73,4.7-2.24c1.6-0.48,3.29-0.73,5.05-0.73c3.49,0,6.75,1.03,9.47,2.79 c2.01,1.29,3.74,2.99,5.06,4.98c0.16,0.23,0.31,0.46,0.46,0.7c0.69,1.17,1.26,2.43,1.68,3.75c0.05,0.15,0.09,0.3,0.13,0.46 c0.08,0.27,0.15,0.55,0.21,0.83c0.02,0.07,0.04,0.14,0.06,0.22c0.14,0.63,0.24,1.29,0.31,1.95c0,0.01,0,0.01,0,0.01 C38.36,38.22,38.39,38.82,38.39,39.42z"
                />
                <path
                  fill="#ff6f00"
                  d="M36.33,39.42c0,0.35-0.02,0.73-0.06,1.11c-0.02,0.18-0.04,0.36-0.06,0.53c-0.23,0.11-0.46,0.21-0.7,0.3 c-0.45,0.17-0.91,0.31-1.38,0.41c-0.32,0.07-0.65,0.13-0.98,0.16h-0.01c-0.31-0.19-0.67-0.42-1.04-0.68 c-0.67-0.47-1.37-1-1.93-1.43c-0.01-0.01-0.01-0.01-0.02-0.02c-0.59-0.45-1.01-0.79-1.01-0.79l-1.06,0.04l-2.04,0.07l-0.95,0.04 l-3.82,0.14l-3.23,0.12c-0.21,0.01-0.46,0.01-0.77,0h-0.01c-0.42-0.01-0.92-0.04-1.47-0.09c-0.64-0.05-1.34-0.11-2.05-0.18 c-0.69-0.08-1.39-0.16-2.06-0.24c-0.74-0.08-1.44-0.17-2.04-0.25c-0.47-0.06-0.88-0.11-1.21-0.15c-0.28-0.32-0.53-0.65-0.77-1.01 c-0.36-0.54-0.67-1.11-0.91-1.72c-0.18-0.43-0.33-0.88-0.44-1.34c0.29-0.89,0.67-1.73,1.12-2.54c0.36-0.66,0.78-1.29,1.24-1.89 c0.45-0.59,0.94-1.14,1.47-1.64v-0.01c0.15-0.15,0.3-0.29,0.45-0.42c0.28-0.26,0.57-0.5,0.87-0.73h0.01 c0.01-0.02,0.02-0.02,0.03-0.03c0.24-0.19,0.49-0.36,0.74-0.53c1.48-1.01,3.15-1.76,4.95-2.2c1.19-0.29,2.44-0.45,3.73-0.45 c2.54,0,4.94,0.61,7.05,1.71h0.01c1.81,0.93,3.41,2.21,4.7,3.75c0.71,0.82,1.32,1.72,1.82,2.67c0.35,0.64,0.65,1.31,0.9,1.99 c0.02,0.06,0.04,0.11,0.06,0.16c0.17,0.5,0.32,1.02,0.45,1.54c0.09,0.37,0.16,0.75,0.22,1.13c0.02,0.12,0.04,0.23,0.05,0.35 C36.28,37.99,36.33,38.7,36.33,39.42z"
                />
                <path
                  fill="#ff9800"
                  d="M34.28,39.42v0.1c0,0.34-0.03,0.77-0.06,1.23c-0.03,0.34-0.06,0.69-0.09,1.02c-0.32,0.07-0.65,0.13-0.98,0.16 h-0.01C32.76,41.98,32.39,42,32,42h-1.75l-0.38-0.11l-1.97-0.6l-2-0.6l-4.63-1.39l-2-0.6c0,0-0.83,0.33-2,0.72h-0.01 c-0.45,0.15-0.94,0.31-1.46,0.47c-0.65,0.19-1.34,0.38-2.02,0.53c-0.7,0.16-1.39,0.28-2.01,0.33c-0.19,0.02-0.38,0.03-0.55,0.03 c-0.56-0.31-1.1-0.68-1.59-1.09c-0.43-0.36-0.83-0.75-1.2-1.18c-0.28-0.32-0.53-0.65-0.77-1.01c0.07-0.45,0.15-0.89,0.27-1.32 c0.3-1.19,0.77-2.33,1.39-3.37c0.34-0.59,0.72-1.16,1.16-1.69c0.01-0.03,0.04-0.06,0.07-0.08c-0.01-0.01,0-0.01,0-0.01 c0.13-0.17,0.27-0.33,0.41-0.48c0-0.01,0-0.01,0-0.01c0.41-0.44,0.83-0.86,1.29-1.25c0.16-0.13,0.31-0.26,0.48-0.39 c0.03-0.03,0.06-0.05,0.1-0.08c2.25-1.72,5.06-2.76,8.09-2.76c3.44,0,6.57,1.29,8.94,3.41c1.14,1.03,2.11,2.26,2.84,3.63 c0.06,0.1,0.12,0.21,0.17,0.32c0.09,0.18,0.18,0.37,0.26,0.57c0.33,0.72,0.59,1.48,0.77,2.26c0.02,0.08,0.04,0.16,0.06,0.24 c0.08,0.37,0.15,0.75,0.2,1.13C34.24,38.21,34.28,38.81,34.28,39.42z"
                />
                <path
                  fill="#ffc107"
                  d="M32.22,39.42c0,0.2-0.01,0.42-0.02,0.65c-0.02,0.37-0.05,0.77-0.1,1.18c-0.02,0.25-0.06,0.5-0.1,0.75h-5.48 l-1.06-0.17l-4.14-0.66l-0.59-0.09l-1.35-0.22c-0.59,0-1.87,0.26-3.22,0.51c-0.71,0.13-1.43,0.27-2.08,0.36 c-0.08,0.01-0.16,0.02-0.23,0.03h-0.01c-0.7-0.15-1.38-0.38-2.02-0.68c-0.2-0.09-0.4-0.19-0.6-0.3c-0.56-0.31-1.1-0.68-1.59-1.09 c-0.01-0.12-0.02-0.22-0.02-0.27c0-0.26,0.01-0.51,0.03-0.76c0.04-0.64,0.13-1.26,0.27-1.86c0.22-0.91,0.54-1.79,0.97-2.6 c0.08-0.17,0.17-0.34,0.27-0.5c0.04-0.08,0.09-0.15,0.13-0.23c0.18-0.29,0.38-0.57,0.58-0.85c0.42-0.55,0.89-1.07,1.39-1.54 c0.01,0,0.01,0,0.01,0c0.04-0.04,0.08-0.08,0.12-0.11c0.05-0.04,0.09-0.09,0.14-0.12c0.2-0.18,0.4-0.34,0.61-0.49 c0-0.01,0.01-0.01,0.01-0.01c1.89-1.41,4.23-2.24,6.78-2.24c1.98,0,3.82,0.5,5.43,1.38h0.01c1.38,0.76,2.58,1.79,3.53,3.03 c0.37,0.48,0.7,0.99,0.98,1.53h0.01c0.05,0.1,0.1,0.2,0.15,0.3c0.3,0.59,0.54,1.21,0.72,1.85h0.01c0.01,0.05,0.03,0.1,0.04,0.15 c0.12,0.43,0.22,0.87,0.29,1.32c0.01,0.09,0.02,0.19,0.03,0.28C32.19,38.43,32.22,38.92,32.22,39.42z"
                />
                <path
                  fill="#ffd54f"
                  d="M30.17,39.31c0,0.16,0,0.33-0.02,0.49v0.01c0,0.01,0,0.01,0,0.01c-0.02,0.72-0.12,1.43-0.28,2.07 c0,0.04-0.01,0.07-0.03,0.11h-4.67l-3.85-0.83l-0.51-0.11l-0.08,0.02l-4.27,0.88L16.27,42H16c-0.64,0-1.27-0.06-1.88-0.18 c-0.09-0.02-0.18-0.04-0.27-0.06h-0.01c-0.7-0.15-1.38-0.38-2.02-0.68c-0.02-0.11-0.04-0.22-0.05-0.33 c-0.07-0.43-0.1-0.88-0.1-1.33c0-0.17,0-0.34,0.01-0.51c0.03-0.54,0.11-1.07,0.23-1.58c0.08-0.38,0.19-0.75,0.32-1.1 c0.11-0.31,0.24-0.61,0.38-0.9c0.12-0.25,0.26-0.49,0.4-0.73c0.14-0.23,0.29-0.45,0.45-0.67c0.4-0.55,0.87-1.06,1.39-1.51 c0.3-0.26,0.63-0.51,0.97-0.73c1.46-0.96,3.21-1.52,5.1-1.52c0.37,0,0.73,0.02,1.08,0.07h0.02c1.07,0.12,2.07,0.42,2.99,0.87 c0.01,0,0.01,0,0.01,0c1.45,0.71,2.68,1.78,3.58,3.1c0.15,0.22,0.3,0.46,0.43,0.7c0.11,0.19,0.21,0.39,0.3,0.59 c0.14,0.31,0.27,0.64,0.38,0.97h0.01c0.11,0.37,0.21,0.74,0.28,1.13v0.01C30.11,38.16,30.17,38.73,30.17,39.31z"
                />
                <path
                  fill="#ffe082"
                  d="M28.11,39.52v0.03c0,0.59-0.07,1.17-0.21,1.74c-0.05,0.24-0.12,0.48-0.21,0.71h-4.48l-2.29-0.63L18.63,42H16 c-0.64,0-1.27-0.06-1.88-0.18c-0.02-0.03-0.03-0.06-0.04-0.09c-0.14-0.43-0.25-0.86-0.3-1.31c-0.04-0.29-0.06-0.59-0.06-0.9 c0-0.12,0-0.25,0.02-0.37c0.01-0.47,0.08-0.93,0.2-1.37c0.06-0.3,0.15-0.59,0.27-0.87c0.04-0.14,0.1-0.27,0.17-0.4 c0.15-0.34,0.33-0.67,0.53-0.99c0.22-0.32,0.46-0.62,0.73-0.9c0.32-0.36,0.68-0.69,1.09-0.96c0.7-0.51,1.5-0.89,2.37-1.1 c0.58-0.16,1.19-0.24,1.82-0.24c2,0,3.79,0.8,5.09,2.09c0.05,0.05,0.11,0.11,0.16,0.18h0.01c0.14,0.15,0.27,0.3,0.4,0.47 c0.37,0.47,0.68,0.98,0.92,1.54c0.12,0.26,0.22,0.53,0.3,0.81c0.01,0.04,0.02,0.07,0.03,0.11c0.14,0.49,0.23,1,0.25,1.53 C28.1,39.2,28.11,39.36,28.11,39.52z"
                />
                <path
                  fill="#ffecb3"
                  d="M26.06,39.52c0,0.41-0.05,0.8-0.16,1.17c-0.1,0.4-0.25,0.78-0.44,1.14c-0.03,0.06-0.1,0.17-0.1,0.17h-8.88 c-0.01-0.01-0.02-0.03-0.02-0.04c-0.12-0.19-0.22-0.38-0.3-0.59c-0.2-0.46-0.32-0.96-0.36-1.48c-0.02-0.12-0.02-0.25-0.02-0.37 c0-0.06,0-0.13,0.01-0.19c0.01-0.44,0.07-0.86,0.19-1.25c0.1-0.36,0.23-0.69,0.4-1.01c0,0,0.01-0.01,0.01-0.02 c0.12-0.21,0.25-0.42,0.4-0.62c0.49-0.66,1.14-1.2,1.89-1.55c0.01,0,0.01,0,0.01,0c0.24-0.12,0.49-0.22,0.75-0.29c0,0,0,0,0.01,0 c0.46-0.14,0.96-0.21,1.47-0.21c0.59,0,1.16,0.09,1.68,0.28c0.19,0.05,0.37,0.13,0.55,0.22c0,0,0,0,0.01,0 c0.86,0.41,1.59,1.05,2.09,1.85c0.1,0.15,0.19,0.31,0.27,0.48c0.04,0.07,0.08,0.15,0.11,0.22c0.23,0.52,0.37,1.09,0.41,1.69 c0.01,0.05,0.01,0.1,0.01,0.16C26.06,39.36,26.06,39.44,26.06,39.52z"
                />
                <g>
                  <path
                    fill="none"
                    stroke="#fff"
                    stroke-linecap="round"
                    stroke-linejoin="round"
                    stroke-miterlimit="10"
                    stroke-width="2"
                    d="M30,11H18c-3.9,0-7,3.1-7,7v12c0,3.9,3.1,7,7,7h12c3.9,0,7-3.1,7-7V18C37,14.1,33.9,11,30,11z"
                  />
                  <circle cx="31" cy="16" r="1" fill="#fff" />
                </g>
                <g>
                  <circle
                    cx="24"
                    cy="24"
                    r="6"
                    fill="none"
                    stroke="#fff"
                    stroke-linecap="round"
                    stroke-linejoin="round"
                    stroke-miterlimit="10"
                    stroke-width="2"
                  />
                </g>
</symbol>   


<symbol
                xmlns="http://www.w3.org/2000/svg"
                viewBox="0 0 50 50"
                id="icon-twitter"
              >
                <path
                  d="M 11 4 C 7.134 4 4 7.134 4 11 L 4 39 C 4 42.866 7.134 46 11 46 L 39 46 C 42.866 46 46 42.866 46 39 L 46 11 C 46 7.134 42.866 4 39 4 L 11 4 z M 13.085938 13 L 21.023438 13 L 26.660156 21.009766 L 33.5 13 L 36 13 L 27.789062 22.613281 L 37.914062 37 L 29.978516 37 L 23.4375 27.707031 L 15.5 37 L 13 37 L 22.308594 26.103516 L 13.085938 13 z M 16.914062 15 L 31.021484 35 L 34.085938 35 L 19.978516 15 L 16.914062 15 z"
                />
 </symbol> 

<symbol
                xmlns="http://www.w3.org/2000/svg"
                viewBox="0 0 48 48"
                id="icon-email"
              >
                <path
                  fill="#4caf50"
                  d="M45,16.2l-5,2.75l-5,4.75L35,40h7c1.657,0,3-1.343,3-3V16.2z"
                />
                <path
                  fill="#1e88e5"
                  d="M3,16.2l3.614,1.71L13,23.7V40H6c-1.657,0-3-1.343-3-3V16.2z"
                />
                <polygon
                  fill="#e53935"
                  points="35,11.2 24,19.45 13,11.2 12,17 13,23.7 24,31.95 35,23.7 36,17"
                />
                <path
                  fill="#c62828"
                  d="M3,12.298V16.2l10,7.5V11.2L9.876,8.859C9.132,8.301,8.228,8,7.298,8h0C4.924,8,3,9.924,3,12.298z"
                />
                <path
                  fill="#fbc02d"
                  d="M45,12.298V16.2l-10,7.5V11.2l3.124-2.341C38.868,8.301,39.772,8,40.702,8h0 C43.076,8,45,9.924,45,12.298z"
                />
</symbol>

<symbol id="icon-linkedin" viewBox="0 0 48 48" >
<path fill="#0288D1" d="M42,37c0,2.762-2.238,5-5,5H11c-2.761,0-5-2.238-5-5V11c0-2.762,2.239-5,5-5h26c2.762,0,5,2.238,5,5V37z"/>
<path fill="#FFF" d="M12 19H17V36H12zM14.485 17h-.028C12.965 17 12 15.888 12 14.499 12 13.08 12.995 12 14.514 12c1.521 0 2.458 1.08 2.486 2.499C17 15.887 16.035 17 14.485 17zM36 36h-5v-9.099c0-2.198-1.225-3.698-3.192-3.698-1.501 0-2.313 1.012-2.707 1.99C24.957 25.543 25 26.511 25 27v9h-5V19h5v2.616C25.721 20.5 26.85 19 29.738 19c3.578 0 6.261 2.25 6.261 7.274L36 36 36 36z"/>
</symbol>
<symbol id="icon-github"  viewBox="0,0,256,256" >
<g fill="#4c4c4c" fill-rule="nonzero" stroke="none" stroke-width="1" stroke-linecap="butt" stroke-linejoin="miter" stroke-miterlimit="10" stroke-dasharray="" stroke-dashoffset="0" font-family="none" font-weight="none" font-size="none" text-anchor="none" style="mix-blend-mode: normal">
<path d="M52.2752,239.36c-19.68078,0 -35.6352,-15.95442 -35.6352,-35.6352v-151.4496c0,-19.68078 15.95442,-35.6352 35.6352,-35.6352h151.4496c19.68078,0 35.6352,15.95442 35.6352,35.6352v151.4496c0,19.68078 -15.95442,35.6352 -35.6352,35.6352z" id="shape">
</path>
</g>
<g fill="#000000" fill-rule="nonzero" stroke="none" stroke-width="1" stroke-linecap="butt" stroke-linejoin="miter" stroke-miterlimit="10" stroke-dasharray="" stroke-dashoffset="0" font-family="none" font-weight="none" font-size="none" text-anchor="none" style="mix-blend-mode: normal">
<g transform="scale(3.55556,3.55556)">
<path d="M36,12c13.255,0 24,10.745 24,24c0,10.656 -6.948,19.685 -16.559,22.818c0.003,-0.009 0.007,-0.022 0.007,-0.022c0,0 -1.62,-0.759 -1.586,-2.114c0.038,-1.491 0,-4.971 0,-6.248c0,-2.193 -1.388,-3.747 -1.388,-3.747c0,0 10.884,0.122 10.884,-11.491c0,-4.481 -2.342,-6.812 -2.342,-6.812c0,0 1.23,-4.784 -0.426,-6.812c-1.856,-0.2 -5.18,1.774 -6.6,2.697c0,0 -2.25,-0.922 -5.991,-0.922c-3.742,0 -5.991,0.922 -5.991,0.922c-1.419,-0.922 -4.744,-2.897 -6.6,-2.697c-1.656,2.029 -0.426,6.812 -0.426,6.812c0,0 -2.342,2.332 -2.342,6.812c0,11.613 10.884,11.491 10.884,11.491c0,0 -1.097,1.239 -1.336,3.061c-0.76,0.258 -1.877,0.576 -2.78,0.576c-2.362,0 -4.159,-2.296 -4.817,-3.358c-0.649,-1.048 -1.98,-1.927 -3.221,-1.927c-0.817,0 -1.216,0.409 -1.216,0.876c0,0.467 1.146,0.793 1.902,1.659c1.594,1.826 1.565,5.933 7.245,5.933c0.617,0 1.876,-0.152 2.823,-0.279c-0.006,1.293 -0.007,2.657 0.013,3.454c0.034,1.355 -1.586,2.114 -1.586,2.114c0,0 0.004,0.013 0.007,0.022c-9.61,-3.133 -16.558,-12.162 -16.558,-22.818c0,-13.255 10.745,-24 24,-24z">
</path>
</g>
</g>
</symbol>
</svg>